<svg width="280" height="294" viewBox="0 0 280 294" fill="none" xmlns="http://www.w3.org/2000/svg">
<path d="M163.935 272.345C163.937 272.3 163.937 272.255 163.935 272.21C163.966 271.572 163.845 270.936 163.58 270.355C162.77 268.715 160.82 268.445 159.165 268.16C156.44 267.692 153.828 266.71 151.47 265.265C149.905 264.31 148.3 262.905 148.105 260.93C148.105 260.525 148.135 260.12 148.105 259.75C148.105 259.48 148.105 259.215 148.105 258.96C148.105 257.905 148.045 256.935 147.26 256.745C142.57 255.585 138.515 251.59 136.9 246.525C136.555 245.445 136.315 244.32 135.87 243.285C134.455 240.005 131.305 238.225 128.925 235.745C125.795 232.48 123.98 227.94 122.665 223.385C121.35 218.83 120.44 214.115 118.715 209.73C115.84 202.415 113.245 194.625 108.37 188.78C107.635 187.895 106.825 186.99 105.97 186.075C101.635 179.745 98.6904 172.26 94.9354 165.43C94.2188 164.03 93.3448 162.717 92.3304 161.515C91.0304 160.075 89.4204 159.045 87.9204 157.87C80.6955 152.23 76.0755 143.37 69.8505 136.405C68.7655 135.19 67.0755 133.48 66.2755 132.015C66.2709 131.16 66.3445 130.307 66.4955 129.465C66.8955 127.39 67.9705 125.42 67.7855 123.305C67.7206 122.893 67.6855 122.477 67.6805 122.06C67.7317 121.579 67.86 121.11 68.0605 120.67C68.3827 119.716 68.8085 118.801 69.3305 117.94C70.2364 116.548 70.8332 114.978 71.0805 113.335C72.3255 112.155 72.8655 109.995 74.4205 109.45C75.2855 109.15 76.4205 109.355 76.9205 108.5C77.065 108.207 77.1451 107.887 77.1555 107.56C77.3129 105.872 77.169 104.168 76.7305 102.53C76.8562 101.664 76.8897 100.788 76.8305 99.9151C76.6599 97.7393 76.0384 95.6228 75.0055 93.7001C74.3705 92.4901 73.5055 91.2801 72.2705 91.0001C72.0005 90.9401 71.7255 90.9251 71.4655 90.8451C69.8755 90.3801 69.3255 87.9251 67.8905 87.1651C69.7355 88.1651 71.6205 89.2951 73.3555 88.4551C75.5355 87.3901 75.7155 84.0701 75.5505 81.4201L74.9705 71.6052C74.6605 66.6052 74.2705 61.3002 71.6955 57.1802C69.3755 53.4602 65.5756 51.2252 61.6956 49.8302C59.0756 48.8852 56.1956 48.2802 53.6006 49.2452C53.7556 49.1352 53.9056 49.0252 54.0556 48.9252C53.7363 49.0203 53.4239 49.1373 53.1206 49.2752C51.7597 49.9668 50.4956 50.8342 49.3606 51.8552C49.9898 50.2633 50.3121 48.5669 50.3106 46.8552C50.3252 44.2942 49.5994 41.7835 48.2206 39.6252L51.1506 37.1602L50.4656 36.0452L51.7556 34.8152C51.6746 34.6838 51.5613 34.5753 51.4265 34.5001C51.2918 34.4248 51.14 34.3853 50.9856 34.3852C50.9257 34.3802 50.8655 34.3802 50.8056 34.3852C50.8519 34.0179 50.8212 33.645 50.7156 33.2902L50.6256 33.3752C50.5478 33.0695 50.4266 32.7765 50.2656 32.5052H50.3706C50.3088 32.3929 50.2404 32.2843 50.1656 32.1802C50.1656 32.2302 50.1656 32.2852 50.1656 32.3352C49.7437 31.714 49.2275 31.1624 48.6356 30.7002C46.3956 28.8602 43.8307 27.3352 41.0557 27.1302C39.7057 27.0302 38.3507 27.2452 37.0007 27.1302C35.1807 27.0052 33.4157 26.3152 31.5907 26.2402C29.7657 26.1652 27.7108 26.9102 26.9558 28.7402C26.6308 29.5402 26.5858 30.4402 26.3408 31.2652C25.7958 33.1052 24.3408 34.3802 23.1058 35.7402C21.8708 37.1002 20.7258 38.9252 21.0658 40.8252C21.2012 41.4295 21.4129 42.0142 21.6958 42.5652L28.0308 56.2452C28.0568 57.2461 28.0267 58.2476 27.9408 59.2452C27.9008 59.6752 27.8457 60.1102 27.7757 60.5502C27.7457 60.7352 27.7108 60.9252 27.6658 61.1152C26.9179 61.2412 26.2401 61.6315 25.7558 62.2152C25.5747 62.4428 25.4605 62.7164 25.4258 63.0052C25.462 63.4635 25.5423 63.9173 25.6658 64.3602C25.6758 64.9503 25.5365 65.5333 25.2608 66.0552C24.6258 67.5302 23.9508 69.0302 22.8708 70.1352C22.4308 70.5902 21.9308 70.9702 21.4858 71.4202C20.9782 71.9603 20.515 72.5405 20.1008 73.1552C19.1758 74.4552 18.2208 75.8152 17.8808 77.4352C17.3208 80.0851 16.1908 82.6051 15.3808 85.1901C15.2655 85.3984 15.1225 85.5901 14.9558 85.7601C14.4558 86.2301 13.8158 86.4301 13.3258 86.8901C12.2258 87.9301 12.3258 89.8301 12.5958 91.4151C13.5658 97.3051 15.2658 103.04 15.9408 108.98C16.2108 111.31 16.3208 113.68 16.8408 115.955C17.0326 116.938 17.3965 117.879 17.9158 118.735C17.8408 120.97 18.0708 123.235 17.2758 125.295C16.9058 126.225 16.3908 127.075 15.9408 127.965C15.3179 129.247 14.7654 130.563 14.2858 131.905L11.5708 139.055C11.0709 140.41 10.5408 141.775 10.1508 143.185C9.02585 147.29 9.02086 151.685 9.18086 155.96C9.20129 156.092 9.17284 156.227 9.10086 156.34C9.02086 156.44 8.83085 156.41 8.82585 156.275C8.79085 156.525 8.65085 156.95 8.62085 157.195C9.83085 157.785 11.1909 157.595 12.5408 157.45C12.5408 157.58 12.5408 157.715 12.5408 157.845C12.5385 157.877 12.5385 157.908 12.5408 157.94C12.553 158.348 12.5948 158.754 12.6658 159.155C12.6658 159.155 12.6658 159.155 12.6658 159.185C12.7008 159.39 12.7458 159.59 12.7908 159.79C12.7908 159.845 12.7908 159.895 12.8308 159.95C12.8758 160.13 12.9258 160.315 12.9808 160.49C13.0108 160.585 13.0358 160.67 13.0658 160.76C13.0958 160.85 13.1408 160.98 13.1808 161.085C13.2208 161.19 13.2258 161.22 13.2508 161.285C13.5808 162.145 13.9758 162.975 14.3508 163.815C14.9949 165.114 15.4254 166.509 15.6258 167.945C15.6558 168.275 15.6658 168.605 15.6808 168.945V169.29C15.6907 169.646 15.7208 170.002 15.7708 170.355C15.8608 170.925 16.0308 171.47 16.1658 172.03C16.2458 172.36 16.3058 172.7 16.3658 173.03C16.4258 173.36 16.4808 173.795 16.5308 174.175C16.9075 177.002 17.1858 179.835 17.3658 182.675C17.4108 183.36 17.4508 184.05 17.4858 184.735C17.7208 189.735 17.6608 194.735 17.6008 199.765C17.5676 201.406 17.4004 203.041 17.1008 204.655C16.2658 209.39 14.5408 213.99 13.4008 218.69C13.2808 219.19 13.1708 219.69 13.0658 220.19C12.8121 221.25 12.6449 222.328 12.5658 223.415C12.5583 224.864 12.6888 226.311 12.9558 227.735C13.2025 229.465 13.3925 231.203 13.5258 232.95C12.604 234.577 12.0031 236.366 11.7558 238.22C11.1508 243.785 6.43587 247.96 5.79587 253.525C5.75333 253.878 5.73829 254.234 5.75087 254.59C5.73589 254.82 5.73589 255.05 5.75087 255.28C5.68411 255.871 5.73509 256.469 5.90087 257.04C6.13788 257.639 6.53539 258.16 7.04968 258.547C7.56396 258.935 8.1751 259.173 8.81586 259.235C10.0409 259.39 11.2658 259.08 12.4858 258.875C13.0358 258.78 13.5858 258.72 14.1358 258.665C14.1508 258.855 14.1508 259.045 14.1358 259.235C13.877 259.7 13.6563 260.185 13.4758 260.685C13.1675 261.271 12.9756 261.911 12.9108 262.57C12.8893 263.348 13.0849 264.117 13.4758 264.79C14.7058 267.035 17.1608 268.09 19.5108 268.29C21.8608 268.49 24.1958 267.975 26.5458 267.85H26.9458C27.0266 268.071 27.1253 268.285 27.2408 268.49C28.4658 270.735 30.9257 271.79 33.2707 271.99C35.6157 272.19 37.9607 271.68 40.3107 271.555C41.0107 271.52 41.7157 271.52 42.4157 271.47C43.8523 271.361 45.2735 271.102 46.6557 270.695C47.6504 272.109 48.7918 273.415 50.0606 274.59C54.1806 278.09 59.8756 277.89 65.0255 277.205C70.1755 276.52 75.9805 275.25 80.6755 277.705C84.2754 277.31 86.4204 283.025 90.0354 283.17C91.6954 283.235 93.1854 282.07 94.3854 280.79C94.7976 280.253 95.328 279.819 95.9354 279.52C96.4375 279.371 96.9696 279.354 97.4804 279.47C100.281 279.977 102.798 281.497 104.55 283.74C105.46 284.88 106.39 286.315 107.755 286.345C108.98 286.345 110.065 285.19 111.28 285.345C112.105 285.455 112.78 286.16 113.495 286.595C115.735 287.92 118.495 286.695 120.645 285.235C122.795 283.775 125.095 282.01 127.615 282.275C129.25 282.445 130.705 283.465 132.23 284.13C136.93 286.18 142.695 284.63 146.065 280.45C146.6 279.78 147.15 279.005 147.94 278.83C148.468 278.765 149.004 278.844 149.49 279.06C152.315 280 155.285 280.865 158.175 280.225C161.065 279.585 163.815 276.97 163.875 273.68C163.879 273.48 163.871 273.279 163.85 273.08C163.85 272.955 163.875 272.825 163.875 272.695C163.902 272.58 163.922 272.463 163.935 272.345ZM50.4356 84.4851C50.2349 85.0115 49.888 85.4694 49.4356 85.8051C49.3956 85.5901 49.3556 85.3751 49.3106 85.1551C49.1306 84.2251 48.9256 83.3002 48.7056 82.3802C49.3726 82.8082 50.0854 83.1604 50.8306 83.4301C50.6856 83.7801 50.5656 84.1551 50.4206 84.4851H50.4356ZM43.1057 61.9152C43.1057 61.9502 43.1057 61.9852 43.1057 62.0202C43.1057 63.7802 43.7157 64.7852 44.6057 65.3602C43.6129 67.2864 43.0984 69.4232 43.1057 71.5902C42.7657 71.3252 42.4007 71.0902 42.1057 70.7952C41.5581 70.2316 41.1131 69.5768 40.7907 68.8602C40.934 68.8847 41.0815 68.8618 41.2107 68.7952C41.4657 68.6202 41.4557 68.2102 41.4207 67.8802C41.0826 64.7408 41.5062 61.5661 42.6557 58.6252C43.24 58.4193 43.8041 58.1599 44.3407 57.8502C43.5973 59.057 43.1756 60.4341 43.1157 61.8502C43.1157 61.8502 43.0907 61.8902 43.0907 61.9152H43.1057ZM67.5755 87.0101C67.3164 87.9797 67.1737 88.9768 67.1505 89.9801C66.2446 88.5908 64.908 87.5369 63.3456 86.9801C63.1614 86.9252 62.9745 86.8801 62.7856 86.8451C62.9023 86.7291 63.0276 86.6222 63.1606 86.5251C64.5956 85.5251 66.2105 86.2251 67.8605 87.1001C67.7626 87.0637 67.6624 87.0336 67.5605 87.0101H67.5755Z" fill="url(#paint0_linear)"/>
<path d="M8.17081 268.45C8.15057 269.251 8.37561 270.04 8.81581 270.71C10.2108 272.995 13.0108 274.065 15.6758 274.265C18.3408 274.465 21.0107 273.945 23.6757 273.82C24.4757 273.785 25.2757 273.78 26.0707 273.735C30.2107 273.485 34.1657 272.02 38.0707 270.57C38.7107 270.335 39.4557 269.955 39.4907 269.28C39.4745 269.047 39.4069 268.82 39.2928 268.616C39.1787 268.412 39.0209 268.236 38.8306 268.1C38.32 267.653 37.7453 267.286 37.1257 267.01C34.9557 266.055 32.3557 266.305 30.2957 265.13C29.8407 264.87 29.4257 264.55 28.9507 264.335C28.3952 264.112 27.8081 263.977 27.2107 263.935C24.6321 263.642 22.0245 263.728 19.4708 264.19C17.5258 264.545 15.6108 265.12 13.6358 265.26C12.8877 265.325 12.1342 265.276 11.4008 265.115C10.9008 265 10.2658 264.55 9.79081 264.85C9.31581 265.15 9.0508 266.105 8.82581 266.53C8.47553 267.117 8.25238 267.771 8.17081 268.45V268.45Z" fill="#3F3D56"/>
<path opacity="0.05" d="M8.17081 268.45C8.15057 269.251 8.37561 270.04 8.81581 270.71C10.2108 272.995 13.0108 274.065 15.6758 274.265C18.3408 274.465 21.0107 273.945 23.6757 273.82C24.4757 273.785 25.2757 273.78 26.0707 273.735C30.2107 273.485 34.1657 272.02 38.0707 270.57C38.7107 270.335 39.4557 269.955 39.4907 269.28C39.4745 269.047 39.4069 268.82 39.2928 268.616C39.1787 268.412 39.0209 268.236 38.8306 268.1C38.32 267.653 37.7453 267.286 37.1257 267.01C34.9557 266.055 32.3557 266.305 30.2957 265.13C29.8407 264.87 29.4257 264.55 28.9507 264.335C28.3952 264.112 27.8081 263.977 27.2107 263.935C24.6321 263.642 22.0245 263.728 19.4708 264.19C17.5258 264.545 15.6108 265.12 13.6358 265.26C12.8877 265.325 12.1342 265.276 11.4008 265.115C10.9008 265 10.2658 264.55 9.79081 264.85C9.31581 265.15 9.0508 266.105 8.82581 266.53C8.47553 267.117 8.25238 267.771 8.17081 268.45V268.45Z" fill="black"/>
<path d="M23.8306 272.2C23.8081 273.002 24.0334 273.791 24.4756 274.46C25.8706 276.745 28.6656 277.815 31.3356 278.015C34.0056 278.215 36.6706 277.695 39.3356 277.57C40.1356 277.535 40.9305 277.53 41.7305 277.485C45.8705 277.235 49.8255 275.77 53.7305 274.32C54.3705 274.08 55.1155 273.705 55.1505 273.025C55.1342 272.792 55.0666 272.567 54.9525 272.363C54.8384 272.16 54.6806 271.985 54.4905 271.85C53.9811 271.402 53.4061 271.034 52.7855 270.76C50.6155 269.805 48.0155 270.05 45.9555 268.875C45.5005 268.62 45.0855 268.295 44.6105 268.085C44.0545 267.862 43.4678 267.726 42.8705 267.68C40.2917 267.389 37.6841 267.476 35.1306 267.94C33.1856 268.295 31.2706 268.87 29.2956 269.005C28.5478 269.074 27.7939 269.027 27.0606 268.865C26.5606 268.75 25.9256 268.3 25.4506 268.6C24.9756 268.9 24.7056 269.855 24.4856 270.28C24.1331 270.866 23.9098 271.521 23.8306 272.2V272.2Z" fill="#3F3D56"/>
<path d="M15.6508 85.0301C15.4691 84.5263 15.1376 84.0901 14.7008 83.7801C13.6558 83.2001 12.4208 84.2801 11.9658 85.3651C11.5108 86.4501 11.3608 87.7801 10.4658 88.5651C9.92083 89.0651 9.17084 89.2451 8.61084 89.7151C7.36085 90.7701 7.48584 92.7151 7.78084 94.3151C8.88584 100.315 10.8208 106.145 11.5908 112.19C11.8958 114.565 12.0208 116.975 12.5908 119.29C12.9408 120.66 13.4958 122.05 14.5908 122.94C15.6858 123.83 17.4358 124.045 18.4658 123.075C16.6031 118.026 15.673 112.681 15.7208 107.3C15.7508 103.8 16.2208 100.3 16.3158 96.7601C16.4208 93.6701 16.2658 90.5751 16.1108 87.4851C16.1251 86.6914 15.9753 85.9033 15.6708 85.1701C15.5094 84.808 15.2441 84.5021 14.9085 84.2911C14.5728 84.0801 14.1821 83.9736 13.7858 83.9851" fill="#FBBEBE"/>
<path d="M38.1007 61.4952C45.0512 61.4952 50.6856 55.8607 50.6856 48.9102C50.6856 41.9597 45.0512 36.3253 38.1007 36.3253C31.1502 36.3253 25.5157 41.9597 25.5157 48.9102C25.5157 55.8607 31.1502 61.4952 38.1007 61.4952Z" fill="#CB8C8E"/>
<path d="M55.0605 86.7451C62.033 86.7451 67.6854 81.0927 67.6854 74.1202C67.6854 67.1476 62.033 61.4952 55.0605 61.4952C48.0879 61.4952 42.4355 67.1476 42.4355 74.1202C42.4355 81.0927 48.0879 86.7451 55.0605 86.7451Z" fill="#FBBEBE"/>
<path d="M60.2555 86.3452C60.3655 87.3452 60.7555 88.5102 61.7105 88.7652C62.1535 88.818 62.5994 88.843 63.0455 88.8402C63.4008 88.906 63.7354 89.0555 64.0215 89.2764C64.3075 89.4972 64.5369 89.783 64.6905 90.1102C64.9921 90.7718 65.1112 91.502 65.0355 92.2252C64.9532 93.3245 64.5993 94.3863 64.0055 95.3152C62.8801 96.9267 61.2517 98.119 59.3755 98.7052C57.5133 99.2793 55.5902 99.6334 53.6455 99.7602C52.7834 99.8992 51.9025 99.872 51.0506 99.6802C50.5146 99.5052 50.0087 99.2489 49.5506 98.9202C48.1272 97.9656 46.8803 96.7712 45.8656 95.3902C45.1198 94.4289 44.5803 93.3243 44.2806 92.1452C43.9933 90.9614 44.1592 89.7129 44.7456 88.6452C44.9258 88.2914 45.2225 88.0106 45.5856 87.8502C46.6556 87.4652 47.6256 88.7902 48.7606 88.8202C49.6606 88.8202 50.3706 88.0502 50.7606 87.2402C51.1506 86.4302 51.3556 85.5152 51.9356 84.8302C52.6105 84.0252 53.6705 83.6702 54.6855 83.4002C56.3555 82.9602 58.5455 82.2952 60.2855 82.4802C61.2405 82.5752 60.6155 83.1452 60.3955 83.8352C60.1745 84.6529 60.1268 85.5079 60.2555 86.3452V86.3452Z" fill="#FBBEBE"/>
<path d="M48.3556 99.5201C49.8906 98.8301 50.7406 97.1651 52.1106 96.1801C53.2606 95.3551 54.6956 95.0602 56.0106 94.5352C57.3451 94.0027 58.5666 93.2223 59.6106 92.2352C60.5606 91.3402 61.4056 90.2352 62.6105 89.7952C63.5312 89.5024 64.5199 89.5024 65.4405 89.7952C68.0355 90.5152 70.0305 92.6752 71.1905 95.1002C72.3505 97.5252 72.7955 100.225 73.2305 102.88L73.8805 106.88C74.363 109.324 74.5959 111.81 74.5755 114.3C74.4705 116.8 73.8205 119.3 72.3055 121.3C71.7192 122.167 71.2343 123.098 70.8605 124.075C70.6365 124.52 70.4926 125 70.4355 125.495C70.4393 125.919 70.4778 126.342 70.5505 126.76C70.7605 128.91 69.5505 130.915 69.0805 133.025C68.837 134.44 68.7631 135.878 68.8605 137.31C68.8484 137.497 68.8864 137.683 68.9705 137.85C69.078 138.001 69.2251 138.118 69.3955 138.19C69.7255 138.365 70.0655 138.53 70.3955 138.69C67.6364 139.303 64.8168 139.602 61.9906 139.58C57.0356 139.465 52.2006 138.08 47.2756 137.505C47.0906 135.245 47.7106 133.065 47.8506 130.805C47.879 129.33 47.787 127.855 47.5756 126.395C47.1638 122.403 47.2024 118.378 47.6906 114.395C47.8606 112.995 48.0906 111.6 48.1556 110.19C48.2306 108.52 48.0806 106.845 48.2006 105.19C48.3156 103.605 48.7006 102.035 48.7406 100.445C48.7877 100.27 48.7755 100.084 48.7058 99.917C48.6362 99.7496 48.513 99.6101 48.3556 99.5201V99.5201Z" fill="#F4F6FB"/>
<path d="M53.9356 135.05C59.1155 135.08 63.6805 135.23 68.8455 135.585C69.7555 137.085 67.5755 141.13 68.8105 142.37C75.8904 149.465 77.4654 159 85.6854 164.745C87.3904 165.935 92.1853 166.9 93.6853 168.37C94.8603 169.535 93.0653 168.705 93.9353 170.12C98.9353 178.28 110.21 186.335 116.745 193.35C122.285 199.295 125.245 207.225 128.515 214.67C130.475 219.125 131.515 223.93 133.015 228.565C134.515 233.2 136.58 237.815 140.14 241.135C142.85 243.665 146.435 245.475 148.04 248.81C148.492 249.888 148.884 250.989 149.215 252.11C150.161 254.686 151.734 256.986 153.793 258.802C155.851 260.617 158.33 261.89 161.005 262.505C162.46 262.825 161.795 265.25 161.945 266.735C162.15 268.765 163.985 270.205 165.775 271.18C168.498 272.659 171.457 273.656 174.52 274.125C176.4 274.41 178.62 274.69 179.52 276.355C179.818 276.938 179.958 277.59 179.925 278.245C179.86 281.595 176.725 284.245 173.425 284.905C170.125 285.565 166.755 284.675 163.545 283.72C162.984 283.5 162.379 283.419 161.78 283.485C160.88 283.66 160.28 284.45 159.645 285.135C157.685 287.243 155.145 288.724 152.345 289.39C149.544 290.057 146.61 289.879 143.91 288.88C142.17 288.2 140.52 287.165 138.66 286.99C135.79 286.72 133.195 288.52 130.725 289.99C128.255 291.46 125.135 292.72 122.59 291.37C121.75 290.93 121.01 290.215 120.09 290.1C118.705 289.94 117.47 291.14 116.09 291.1C114.54 291.07 113.475 289.6 112.44 288.45C110.335 286.129 107.49 284.611 104.39 284.155C103.809 284.034 103.208 284.051 102.635 284.205C101.958 284.498 101.355 284.938 100.87 285.495C99.5053 286.8 97.8103 287.995 95.9253 287.915C91.8104 287.77 89.3654 281.955 85.2704 282.355C79.9304 279.855 73.3204 281.145 67.4655 281.855C61.6105 282.565 55.1256 282.77 50.4356 279.195C47.9656 277.305 46.2906 274.56 43.9856 272.465C40.3456 269.155 35.4357 267.71 30.7007 266.36C23.2007 264.22 15.4108 262.06 7.70081 263.225C6.31081 263.435 4.91583 263.725 3.52084 263.59C2.12584 263.455 0.695848 262.67 0.20585 261.36C-0.00812686 260.688 -0.0561626 259.974 0.0658518 259.28C0.790848 253.62 6.15581 249.37 6.84081 243.705C7.18581 240.895 8.69581 238.435 10.3058 236.11C11.6758 234.031 12.9261 231.876 14.0508 229.655C16.7158 224.655 19.3907 219.655 21.4007 214.375C23.5157 208.82 24.8707 203.01 26.2207 197.22C27.5207 191.635 28.1407 185.915 29.0757 180.255C29.7557 176.14 30.8207 172.1 31.8857 168.065C35.0357 156.145 38.2056 144.155 43.3856 132.975C46.7556 133.925 50.4706 135.03 53.9356 135.05Z" fill="#E3E8F4"/>
<path d="M53.9356 136.55C59.1155 136.58 63.6805 136.23 68.8455 136.585C69.7555 138.085 71.6805 139.815 72.9155 141.05C79.9954 148.155 85.2554 157.155 93.4703 162.895C95.1753 164.09 97.0053 165.14 98.4703 166.605C99.6152 167.815 100.611 169.158 101.435 170.605C106.435 178.77 110.19 187.855 116.725 194.87C122.265 200.815 125.225 208.745 128.495 216.19C130.455 220.645 131.495 225.45 132.995 230.085C134.495 234.72 136.56 239.335 140.12 242.655C142.83 245.185 146.415 246.995 148.02 250.33C148.472 251.408 148.864 252.509 149.195 253.63C150.141 256.206 151.714 258.506 153.773 260.322C155.831 262.137 158.31 263.41 160.985 264.025C162.44 264.345 161.775 266.77 161.925 268.255C162.13 270.285 163.965 271.725 165.755 272.7C168.478 274.179 171.437 275.176 174.5 275.645C176.38 275.93 178.6 276.21 179.5 277.875C179.798 278.458 179.938 279.11 179.905 279.765C179.84 283.115 176.705 285.765 173.405 286.425C170.105 287.085 166.735 286.195 163.525 285.24C162.964 285.02 162.359 284.939 161.76 285.005C160.86 285.18 160.26 285.97 159.625 286.655C157.665 288.763 155.125 290.244 152.325 290.91C149.524 291.577 146.59 291.399 143.89 290.4C142.15 289.72 140.5 288.685 138.64 288.51C135.77 288.24 133.175 290.04 130.705 291.51C128.235 292.98 125.115 294.24 122.57 292.89C121.73 292.45 120.99 291.735 120.07 291.62C118.685 291.46 117.45 292.66 116.07 292.62C114.52 292.59 113.455 291.12 112.42 289.97C110.323 287.646 107.485 286.121 104.39 285.655C103.809 285.534 103.208 285.551 102.635 285.705C101.958 285.998 101.355 286.438 100.87 286.995C99.5053 288.3 97.8103 289.495 95.9253 289.415C91.8104 289.27 89.3654 283.455 85.2704 283.855C79.9304 281.355 73.3204 282.645 67.4655 283.355C61.6105 284.065 55.1256 284.27 50.4356 280.695C47.9656 278.805 46.2906 276.06 43.9856 273.965C40.3456 270.655 35.4357 269.21 30.7007 267.86C23.2007 265.72 15.4108 263.56 7.70081 264.725C6.31081 264.935 4.91583 265.225 3.52084 265.09C2.12584 264.955 0.695848 264.17 0.20585 262.86C-0.00812686 262.188 -0.0561626 261.474 0.0658518 260.78C0.790848 255.12 6.15581 250.87 6.84081 245.205C7.18581 242.395 8.69581 239.935 10.3058 237.61C11.6758 235.531 12.9261 233.376 14.0508 231.155C16.7158 226.155 19.3907 221.155 21.4007 215.875C23.5157 210.32 24.8707 204.51 26.2207 198.72C27.5207 193.135 28.1407 187.415 29.0757 181.755C29.7557 177.64 30.8207 173.6 31.8857 169.565C35.0357 157.645 38.2056 145.655 43.3856 134.475C46.7556 135.425 50.4706 136.53 53.9356 136.55Z" fill="#E3E8F4"/>
<path d="M53.9356 135.55C59.1155 135.58 63.6805 135.23 68.8455 135.585C69.7555 137.085 71.6805 138.815 72.9155 140.05C79.9954 147.155 85.2554 156.155 93.4703 161.895C95.1753 163.09 97.0053 164.14 98.4703 165.605C99.6152 166.815 100.611 168.158 101.435 169.605C106.435 177.77 110.19 186.855 116.725 193.87C122.265 199.815 125.225 207.745 128.495 215.19C130.455 219.645 131.495 224.45 132.995 229.085C134.495 233.72 136.56 238.335 140.12 241.655C142.83 244.185 146.415 245.995 148.02 249.33C148.472 250.408 148.864 251.509 149.195 252.63C150.141 255.206 151.714 257.506 153.773 259.322C155.831 261.137 158.31 262.41 160.985 263.025C162.44 263.345 161.775 265.77 161.925 267.255C162.13 269.285 163.965 270.725 165.755 271.7C168.478 273.179 171.437 274.176 174.5 274.645C176.38 274.93 178.6 275.21 179.5 276.875C179.798 277.458 179.938 278.11 179.905 278.765C179.84 282.115 176.705 284.765 173.405 285.425C170.105 286.085 166.735 285.195 163.525 284.24C162.964 284.02 162.359 283.939 161.76 284.005C160.86 284.18 160.26 284.97 159.625 285.655C157.665 287.763 155.125 289.244 152.325 289.91C149.524 290.577 146.59 290.399 143.89 289.4C142.15 288.72 140.5 287.685 138.64 287.51C135.77 287.24 133.175 289.04 130.705 290.51C128.235 291.98 125.115 293.24 122.57 291.89C121.73 291.45 120.99 290.735 120.07 290.62C118.685 290.46 117.45 291.66 116.07 291.62C114.52 291.59 113.455 290.12 112.42 288.97C110.323 286.646 107.485 285.121 104.39 284.655C103.809 284.534 103.208 284.551 102.635 284.705C101.958 284.998 101.355 285.438 100.87 285.995C99.5053 287.3 97.8103 288.495 95.9253 288.415C91.8104 288.27 89.3654 282.455 85.2704 282.855C79.9304 280.355 73.3204 281.645 67.4655 282.355C61.6105 283.065 55.1256 283.27 50.4356 279.695C47.9656 277.805 46.2906 275.06 43.9856 272.965C40.3456 269.655 35.4357 268.21 30.7007 266.86C23.2007 264.72 15.4108 262.56 7.70081 263.725C6.31081 263.935 4.91583 264.225 3.52084 264.09C2.12584 263.955 0.695848 263.17 0.20585 261.86C-0.00812686 261.188 -0.0561626 260.474 0.0658518 259.78C0.790848 254.12 6.15581 249.87 6.84081 244.205C7.18581 241.395 8.69581 238.935 10.3058 236.61C11.6758 234.531 12.9261 232.376 14.0508 230.155C16.7158 225.155 19.3907 220.155 21.4007 214.875C23.5157 209.32 24.8707 203.51 26.2207 197.72C27.5207 192.135 28.1407 186.415 29.0757 180.755C29.7557 176.64 30.8207 172.6 31.8857 168.565C35.0357 156.645 38.2056 144.655 43.3856 133.475C46.7556 134.425 50.4706 135.53 53.9356 135.55Z" fill="#F4F6FB"/>
<path d="M8.8408 158.495C7.19081 160.3 7.56581 163.17 8.5308 165.415C9.4958 167.66 10.9608 169.765 11.2308 172.195C11.3208 173.005 11.2708 173.825 11.4108 174.63C11.5158 175.21 11.7108 175.765 11.8608 176.335C12.043 177.056 12.1833 177.788 12.2808 178.525C12.8108 182.085 13.1708 185.675 13.3608 189.275C13.6358 194.365 13.5658 199.47 13.4958 204.57C13.3958 211.705 9.99579 218.385 8.3408 225.325C8.0496 226.398 7.85879 227.496 7.77081 228.605C7.76342 230.081 7.90919 231.554 8.20581 233C9.66685 242.102 9.36983 251.4 7.33081 260.39C8.8308 261.57 9.87579 263.55 9.5158 265.42C12.7408 265.985 16.1158 266.54 19.2207 265.515C21.0957 264.9 22.7807 263.73 24.7207 263.365C26.2207 263.09 27.9557 263.23 29.0157 262.14C29.4465 261.631 29.7605 261.033 29.9357 260.39C33.5957 249.74 32.5707 238.145 32.3657 226.89C32.2557 220.84 32.3657 214.785 32.1357 208.74C31.684 197.962 29.9929 187.271 27.0957 176.88C25.6957 171.88 24.3457 166.88 21.5957 162.445C21.042 161.42 20.2582 160.537 19.3058 159.865C18.2608 159.225 16.9958 159.07 15.7758 158.93C13.2258 158.655 11.3908 158.785 8.8408 158.495Z" fill="#3F3D56"/>
<path opacity="0.05" d="M29.9357 260.395C29.7594 261.037 29.4455 261.632 29.0157 262.14C27.9557 263.235 26.2157 263.09 24.7207 263.37C24.5307 263.405 24.3407 263.45 24.1557 263.5C22.4507 263.955 20.9107 264.96 19.2258 265.5C16.1158 266.5 12.7258 265.97 9.5158 265.405C9.87579 263.535 8.8308 261.55 7.33081 260.37C9.37147 251.382 9.67019 242.086 8.21081 232.985C7.91006 231.539 7.76257 230.066 7.77081 228.59C7.86081 227.482 8.05159 226.384 8.3408 225.31C9.98579 218.365 13.3958 211.685 13.4958 204.55C13.5658 199.45 13.6358 194.345 13.3658 189.255C13.1691 185.655 12.8074 182.072 12.2808 178.505C12.1825 177.768 12.044 177.037 11.8658 176.315C11.7108 175.75 11.5158 175.19 11.4158 174.61C11.2708 173.81 11.3208 172.985 11.2308 172.175C10.9608 169.745 9.5008 167.645 8.5308 165.4C8.12578 164.475 7.86281 163.494 7.75081 162.49C7.63584 161.784 7.67366 161.062 7.86169 160.372C8.04973 159.682 8.3836 159.04 8.8408 158.49C10.5558 158.68 11.9408 158.675 13.4408 158.74C14.1758 158.77 14.9408 158.82 15.7758 158.915C16.9958 159.05 18.2757 159.205 19.3107 159.85C20.2623 160.521 21.0447 161.404 21.5957 162.43C21.8657 162.865 22.1207 163.305 22.3657 163.75C24.6107 167.835 25.8357 172.335 27.0957 176.86C29.9925 187.251 31.6836 197.942 32.1357 208.72C32.3907 214.765 32.2557 220.82 32.3657 226.875C32.5757 238.155 33.5957 249.74 29.9357 260.395Z" fill="black"/>
<path d="M48.3705 162.415C48.3705 163.29 48.3705 164.17 48.3705 165.045C48.3472 173.492 48.3256 181.937 48.3056 190.38C48.3056 193.855 48.3056 197.34 47.9456 200.795C47.0606 209.795 43.7706 218.51 44.1206 227.52C44.3706 234.065 44.6206 240.685 43.3056 247.105C42.8056 249.565 42.0756 251.985 41.7156 254.47C41.3556 256.955 41.3956 259.575 42.3806 261.89C43.0906 263.545 44.2856 265.11 44.2206 266.89C44.147 267.655 43.8946 268.392 43.4838 269.042C43.073 269.691 42.5153 270.235 41.8556 270.63C40.5263 271.403 39.0526 271.894 37.5256 272.075C35.6205 272.39 33.6916 272.539 31.7606 272.52C28.9956 272.49 25.8457 271.885 24.4157 269.52C23.4557 267.93 23.5307 265.91 23.9907 264.105C24.0457 263.895 24.1007 263.69 24.1607 263.485C24.6307 261.91 25.3007 260.395 25.6607 258.795C26.2389 256.27 26.0527 253.629 25.1257 251.21C24.9557 250.76 24.4207 249.91 23.9407 249.965C23.1757 247.99 23.0607 245.83 22.9407 243.71L22.2357 229.36C22.0857 226.235 21.9357 223.07 22.5757 220.01C23.0757 217.51 24.1407 215.13 24.4407 212.595C24.5749 211.073 24.5665 209.541 24.4157 208.02C23.8553 200.179 22.8402 192.378 21.3757 184.655C21.3273 184.262 21.1961 183.884 20.9907 183.545C20.6607 183.085 20.0857 182.87 19.6807 182.47C18.8307 181.64 18.9107 180.285 18.7107 179.11C18.3507 176.99 16.9457 175.23 15.8607 173.38C14.1339 170.399 13.1672 167.038 13.0457 163.595C12.9843 161.967 13.1169 160.337 13.4407 158.74C13.4807 158.525 13.5307 158.31 13.5807 158.095C24.4783 157.399 35.42 158.071 46.1506 160.095C46.9356 160.24 47.8156 160.465 48.1806 161.175C48.3402 161.568 48.4053 161.993 48.3705 162.415V162.415Z" fill="#3F3D56"/>
<path d="M109.76 201.77C115.14 211.24 120.54 220.73 124.82 230.745C128.295 238.87 131.145 247.525 136.975 254.165C142.435 260.38 149.975 264.26 157.38 267.995L150.75 262.155C144.095 256.28 137.3 250.24 133.075 242.435C130.775 238.185 129.315 233.54 127.575 229.015C123.141 217.377 116.965 206.48 109.26 196.695C107.118 193.884 104.814 191.199 102.36 188.655C104.055 193.155 107.37 197.57 109.76 201.77Z" fill="#E3E8F4"/>
<path d="M82.3154 266.655C83.9354 269.985 85.5854 273.365 88.0554 276.125C88.2654 274.475 87.1354 272.995 86.2404 271.595C84.6204 269.05 83.6354 266.185 82.6504 263.35C81.7404 260.725 80.8954 257.105 78.9605 255.03C77.9705 258.59 80.8154 263.595 82.3154 266.655Z" fill="#E3E8F4"/>
<path d="M63.5605 204.285C64.0305 206.785 64.3055 209.285 64.9355 211.73C65.5545 213.927 66.3144 216.081 67.2105 218.18L77.7505 244.45C77.6605 240.88 75.7505 237.65 74.5355 234.3C73.0355 230.185 72.4955 225.8 71.2705 221.57C70.2705 218.14 68.8205 214.865 67.7705 211.45C66.3105 206.635 65.6955 201.605 64.5505 196.705C63.5164 192.464 62.2257 188.29 60.6856 184.205C59.9856 182.275 59.1856 180.27 57.6406 178.935C56.0956 177.6 53.5056 177.22 52.0456 178.665C49.9906 180.7 53.1056 181.975 54.1306 183.3C58.8702 189.467 62.0966 196.66 63.5505 204.3L63.5605 204.285Z" fill="#E3E8F4"/>
<path d="M77.7054 150.015C78.2649 150.579 78.7519 151.211 79.1554 151.895C79.7204 152.935 79.9454 154.15 80.6554 155.115C79.405 153.36 77.9775 151.738 76.3955 150.275C75.4355 149.45 74.3955 148.74 73.4305 147.915C72.6955 147.285 69.4755 144.555 70.1155 143.625C72.9355 145.06 75.5605 147.7 77.7054 150.015Z" fill="#E3E8F4"/>
<path d="M44.2456 56.0752C44.1306 57.1102 43.4956 58.0052 42.9506 58.8952C41.3612 61.5359 40.4747 64.5397 40.3756 67.6202C40.3457 68.5236 40.3858 69.428 40.4956 70.3252C40.5356 70.6602 40.5456 71.0802 40.2556 71.2552C40.0995 71.3275 39.925 71.3502 39.7556 71.3202C39.4156 71.2902 39.0856 71.2502 38.7556 71.1952C33.4107 70.3402 28.7307 66.6952 23.3507 65.7752C23.6827 65.6183 23.9772 65.3921 24.2144 65.1117C24.4515 64.8314 24.6259 64.5035 24.7257 64.1502C24.8701 63.7472 24.9789 63.3322 25.0507 62.9102C25.1307 62.4652 25.1907 62.0202 25.2357 61.5852C25.5757 58.3652 25.0857 55.4052 24.9057 52.1352C24.7007 48.3252 29.4057 49.5802 32.1657 49.5302C34.3807 49.4902 36.6356 49.4552 38.7756 50.0552C40.9156 50.6552 42.9506 51.9802 43.8706 54.0002C44.1789 54.6459 44.3084 55.3624 44.2456 56.0752Z" fill="#CB8C8E"/>
<path d="M40.2556 71.2552C40.0995 71.3276 39.925 71.3502 39.7556 71.3202C39.4156 71.2902 39.0856 71.2502 38.7556 71.1952C38.2956 70.7652 37.8506 70.3152 37.4256 69.8452C36.4256 68.7352 35.5256 67.5152 34.3657 66.5702C32.574 65.1784 30.3837 64.3969 28.1157 64.3402C26.9824 64.3704 25.8485 64.3069 24.7257 64.1502C24.8701 63.7472 24.9789 63.3323 25.0507 62.9102C25.1307 62.4652 25.1907 62.0202 25.2357 61.5852C25.8626 61.5046 26.4937 61.4596 27.1257 61.4502C27.8676 61.3429 28.62 61.3277 29.3657 61.4052C30.6007 61.5902 31.6907 62.2802 32.8007 62.8552C34.3357 63.6502 35.9806 64.2502 37.4056 65.2352C37.8456 65.5452 38.2656 65.8852 38.6856 66.2352C39.2556 66.7002 39.8206 67.1702 40.3906 67.6302C40.3607 68.5336 40.4008 69.438 40.5106 70.3352C40.5356 70.6552 40.5456 71.0802 40.2556 71.2552Z" fill="#E3E8F4"/>
<path opacity="0.1" d="M48.3706 162.415C48.3706 163.29 48.3706 164.17 48.3706 165.045C46.2906 165.105 44.1656 165.41 42.0956 165.545C40.1506 165.685 38.2007 165.69 36.2507 165.665C34.7251 165.703 33.2013 165.535 31.7207 165.165C30.6557 164.855 29.6557 164.345 28.5957 164.025C26.5957 163.41 24.4857 163.485 22.3707 163.735C20.6507 163.935 18.9158 164.235 17.2008 164.39C16.0895 164.545 14.9571 164.428 13.9008 164.05C13.6054 163.916 13.3212 163.759 13.0508 163.58C12.6281 163.296 12.1871 163.041 11.7308 162.815C10.5008 162.265 9.13081 162.355 7.75582 162.485C7.64085 161.779 7.67865 161.057 7.86669 160.367C8.05473 159.677 8.38862 159.035 8.84581 158.485C10.5608 158.675 11.9458 158.67 13.4458 158.735C13.4858 158.52 13.5358 158.305 13.5858 158.09C24.4833 157.394 35.4251 158.066 46.1556 160.09C46.9406 160.235 47.8206 160.46 48.1856 161.17C48.3443 161.565 48.4077 161.991 48.3706 162.415V162.415Z" fill="black"/>
<path d="M25.6808 63.3652C24.5958 63.4952 23.4358 63.7702 22.7358 64.6052C22.5324 64.8295 22.4017 65.1102 22.3608 65.4102C22.4024 65.8784 22.4929 66.3409 22.6308 66.7902C22.6419 67.3953 22.4825 67.9914 22.1708 68.5102C21.4458 70.0102 20.6708 71.5402 19.4508 72.6652C18.9508 73.1302 18.3808 73.5152 17.8758 73.9702C17.3015 74.5144 16.7746 75.1066 16.3008 75.7402C15.2458 77.0602 14.1608 78.4452 13.7758 80.0902C13.1008 82.9452 11.6958 85.6402 10.7758 88.4302C9.85584 91.2202 9.27585 94.1902 9.77584 97.0802C10.0108 98.4502 10.4858 99.7652 10.8158 101.115C11.3458 103.28 11.4958 105.52 12.0558 107.675C12.4108 109.02 12.9208 110.32 13.3058 111.675C14.1454 114.578 14.3719 117.625 13.9708 120.62C13.5958 123.355 14.2258 126.265 13.1208 128.79C12.6669 129.721 12.1662 130.629 11.6208 131.51C10.9153 132.806 10.2859 134.141 9.73585 135.51L6.65086 142.79C6.03836 144.16 5.49928 145.562 5.03588 146.99C3.75089 151.17 3.74589 155.625 3.92588 159.99C3.94739 160.126 3.91705 160.265 3.84088 160.38C3.74588 160.48 3.53088 160.45 3.52588 160.315C3.48588 160.565 3.32589 161 3.29089 161.25C5.91588 162.39 9.14585 160.665 11.7608 161.83C12.5208 162.17 13.1658 162.735 13.9308 163.065C14.9862 163.448 16.1191 163.566 17.2308 163.41C21.0458 163.095 24.9608 161.91 28.6207 163.04C29.6857 163.365 30.6807 163.875 31.7457 164.185C33.2281 164.554 34.7535 164.723 36.2807 164.685C38.2307 164.715 40.1807 164.71 42.1257 164.565C46.3107 164.26 50.7056 163.345 54.5606 165.005C55.8056 164.09 55.9006 162.67 55.9506 161.13C56.0439 158.23 56.1373 155.332 56.2306 152.435L57.2656 120.46C57.4118 118.258 57.3297 116.046 57.0206 113.86C56.3156 109.9 54.1506 106.36 52.0206 102.965L42.0757 86.9652C41.4157 85.9052 42.0757 84.7202 42.5307 83.5552C43.1659 81.8834 43.5958 80.1406 43.8107 78.3652C43.9707 77.0602 43.9607 75.5902 43.0757 74.6202C42.5757 74.0752 41.8707 73.7702 41.3007 73.3002C40.4707 72.6202 39.9707 71.6552 39.4707 70.7452C38.0834 68.2427 36.0691 66.1441 33.6257 64.6552C31.1707 63.2302 28.5008 63.0302 25.6808 63.3652Z" fill="#3F3D56"/>
<path opacity="0.1" d="M35.9406 77.8752C32.4056 78.8502 30.2156 82.4402 29.2456 85.9752C27.8856 90.9202 28.2156 96.2051 29.4156 101.185C30.6156 106.165 32.6656 110.9 34.7406 115.585C35.2266 116.73 35.7741 117.849 36.3806 118.935C38.0623 121.876 40.6316 124.209 43.7206 125.6C46.8286 126.972 50.3385 127.127 53.5555 126.035C54.1471 125.846 54.7042 125.562 55.2055 125.195C56.9755 123.835 57.2505 121.315 57.3805 119.085L57.8255 111.27C57.8707 110.858 57.8504 110.441 57.7655 110.035C57.565 109.481 57.2575 108.971 56.8605 108.535C55.3962 106.64 54.3098 104.481 53.6605 102.175C53.2055 100.56 52.9655 98.8752 52.2655 97.3502C51.8455 96.4302 51.2655 95.5901 50.8105 94.6851C49.8105 92.7352 49.4555 90.5502 48.9855 88.4202C48.5755 86.5602 48.0855 84.7185 47.5155 82.8952C47.2524 81.8854 46.8214 80.927 46.2405 80.0602C44.8656 78.2002 42.4256 77.5302 40.1656 77.0602C39.0973 76.7459 37.9694 76.691 36.8756 76.9002C35.6456 77.2352 34.6906 78.1852 33.8006 79.0952" fill="black"/>
<path d="M36.4406 77.3752C32.9056 78.3502 30.7156 81.9402 29.7456 85.4752C28.3856 90.4202 28.7156 95.7051 29.9156 100.685C31.1156 105.665 33.1656 110.4 35.2406 115.085C35.7266 116.23 36.2741 117.349 36.8806 118.435C38.5623 121.376 41.1316 123.709 44.2206 125.1C47.3286 126.472 50.8385 126.627 54.0555 125.535C54.6471 125.346 55.2042 125.062 55.7055 124.695C57.4755 123.335 57.7505 120.815 57.8805 118.585L58.3255 110.77C58.3707 110.358 58.3504 109.941 58.2655 109.535C58.065 108.981 57.7575 108.471 57.3605 108.035C55.8962 106.14 54.8098 103.981 54.1605 101.675C53.7055 100.06 53.4655 98.3752 52.7655 96.8502C52.3455 95.9302 51.7655 95.0901 51.3105 94.1851C50.3105 92.2352 49.9555 90.0502 49.4855 87.9202C49.0755 86.0602 48.5855 84.2185 48.0155 82.3952C47.7524 81.3854 47.3214 80.427 46.7405 79.5602C45.3656 77.7002 42.9256 77.0302 40.6656 76.5602C39.5973 76.2459 38.4694 76.191 37.3756 76.4002C36.1456 76.7352 35.1906 77.6852 34.3006 78.5952" fill="#3F3D56"/>
<path d="M70.9304 98.2452C69.6679 95.6066 69.4326 92.5926 70.2704 89.7902C72.2304 90.2902 72.7704 93.1802 74.7704 93.6952C75.0654 93.7702 75.3804 93.7852 75.6804 93.8502C77.0804 94.1352 78.0704 95.3502 78.7954 96.6002C79.9596 98.5216 80.6709 100.683 80.8754 102.92C81.0727 105.167 80.5471 107.418 79.3754 109.345C79.4254 109.27 75.8754 105.63 75.5754 105.255C74.9521 104.525 74.3421 103.78 73.7454 103.02C73.1182 102.316 72.5544 101.558 72.0604 100.755C71.8904 100.435 71.8554 100.065 71.7054 99.7252C71.4704 99.2202 71.1754 98.7402 70.9304 98.2452Z" fill="#CB8C8E"/>
<path d="M61.8155 127.655C61.2058 132.455 59.0198 136.917 55.6005 140.34C54.8355 141.095 53.8805 141.84 52.8105 141.735C51.6555 141.615 50.8605 140.565 50.0355 139.735C48.5355 138.235 46.5355 137.34 44.8705 136.03C44.0096 135.321 43.1947 134.558 42.4306 133.745C39.9806 131.245 37.5156 128.745 35.5606 125.83C34.4556 124.19 33.5106 122.43 32.2006 120.95C31.1656 119.775 29.9206 118.805 28.8306 117.685C27.7406 116.565 26.7807 115.225 26.5207 113.685C26.2457 112.055 24.5207 110.995 23.4357 109.745C22.098 108.162 21.132 106.299 20.6086 104.293C20.0851 102.288 20.0175 100.19 20.4107 98.1552C20.5857 97.2852 20.9507 96.3102 21.7907 96.0102C22.1242 95.9084 22.477 95.8862 22.8207 95.9452C24.9307 96.2402 26.4956 97.9902 27.8606 99.6302C28.7965 100.703 29.6568 101.839 30.4356 103.03C32.1006 105.735 32.8656 108.885 33.6056 111.975C34.0406 113.78 35.8406 115.115 37.1356 116.445L40.3856 119.78C41.1606 120.575 41.9356 121.375 42.7856 122.09C45.1106 124.06 47.9005 125.38 50.6855 126.59C50.9312 125.69 51.3015 124.828 51.7855 124.03C52.0335 123.638 52.3609 123.301 52.7467 123.043C53.1325 122.785 53.5681 122.61 54.0255 122.53C55.3155 122.365 56.4955 123.22 57.5255 124.03L61.3505 127.03C61.5655 127.205 61.8455 127.395 61.8155 127.655Z" fill="#FBBEBE"/>
<path opacity="0.1" d="M67.9005 97.8152C68.37 98.3186 68.7414 98.9054 68.9955 99.5452C69.8454 101.3 70.2294 103.244 70.1105 105.19C69.9776 106.238 69.7466 107.271 69.4205 108.275L68.2305 112.37C66.3805 118.72 64.5255 125.085 62.0255 131.21C59.9705 128.545 56.3756 127.74 53.4556 126.075C53.1675 125.932 52.9108 125.733 52.7006 125.49C52.443 125.114 52.3117 124.666 52.3256 124.21C52.3569 122.98 52.6251 121.768 53.1156 120.64C54.9356 115.755 57.4606 110.985 57.7556 105.785C57.7671 104.818 57.8288 103.851 57.9406 102.89C58.1519 101.745 58.6046 100.658 59.2683 99.7009C59.9321 98.744 60.7919 97.9393 61.7905 97.3402C63.4705 96.2502 66.4105 96.3552 67.9005 97.8152Z" fill="black"/>
<path d="M67.4005 96.6552C67.869 97.1594 68.2402 97.746 68.4955 98.3852C69.3455 100.14 69.7294 102.084 69.6105 104.03C69.4806 105.091 69.2496 106.138 68.9205 107.155L67.7305 111.25C65.8805 117.6 64.0255 123.965 61.5255 130.09C59.4706 127.43 55.8756 126.62 52.9556 124.955C52.6677 124.814 52.411 124.617 52.2006 124.375C51.9446 123.998 51.8135 123.551 51.8256 123.095C51.8564 121.864 52.1247 120.65 52.6156 119.52C54.4356 114.635 56.9606 109.87 57.2556 104.665C57.2669 103.699 57.3287 102.735 57.4406 101.775C57.651 100.629 58.1032 99.5407 58.767 98.5828C59.4309 97.625 60.2911 96.8196 61.2906 96.2202C62.9706 95.1052 65.9105 95.2102 67.4005 96.6552Z" fill="#F4F6FB"/>
<path d="M55.8155 70.0802C56.8155 71.1452 57.0955 72.6852 57.2605 74.1402C57.6905 77.9002 57.7005 81.7802 56.5305 85.3802C55.3605 88.9802 52.8806 92.2752 49.4056 93.7702C54.2455 94.5552 59.9955 95.0452 63.2755 91.3952C63.9155 90.6852 64.4355 89.8302 65.2505 89.3152C68.7255 87.1252 73.1354 92.9002 76.9054 91.2602C79.4054 90.1802 79.5854 86.8002 79.4054 84.1002L78.7204 74.1002C78.3704 68.9952 77.9254 63.6002 75.0004 59.4202C72.3604 55.6352 68.0355 53.3602 63.6405 51.9202C60.4805 50.9202 56.9605 50.2652 53.8855 51.5302C49.9606 53.1402 42.3856 59.5702 42.4306 64.3252C42.5156 71.3902 52.5156 66.5902 55.8155 70.0802Z" fill="#3F3D56"/>
<path d="M58.7955 109.115C59.357 109.137 59.9182 109.065 60.4555 108.9C61.3055 108.585 61.9555 107.795 62.8705 107.665C63.3305 107.6 63.9205 107.665 64.1205 107.23C64.1801 107.028 64.2022 106.816 64.1855 106.605C64.2555 105.39 65.7805 104.97 66.8105 104.32C67.46 103.865 68.0352 103.312 68.5155 102.68L72.0654 98.4851C72.3916 98.0054 72.8657 97.6455 73.4154 97.4601C74.0434 97.3903 74.6736 97.5699 75.1704 97.9601C77.2367 99.3339 78.8915 101.242 79.9587 103.482C81.0259 105.722 81.4654 108.21 81.2304 110.68C81.2221 111.021 81.133 111.355 80.9704 111.655C80.4154 112.525 79.1104 112.315 78.1254 112.625C76.2404 113.215 75.6654 115.66 74.0504 116.795C73.3254 117.295 72.4305 117.51 71.7255 118.03C71.0205 118.55 70.4805 119.46 69.8405 120.165C68.8405 121.295 67.4155 121.99 66.0455 122.665L61.8605 124.705C61.0373 125.134 60.1792 125.492 59.2955 125.775C57.7696 126.132 56.1998 126.265 54.6355 126.17L51.5706 126.13C51.2249 126.161 50.8777 126.092 50.5706 125.93C50.3901 125.795 50.2387 125.625 50.1256 125.43C48.5506 123.065 48.2306 120.01 48.7906 117.225C49.2556 114.915 50.3506 111.725 51.9955 109.97C53.4255 108.46 56.8155 109.155 58.7955 109.115Z" fill="#3F3D56"/>
<path d="M46.5556 44.3302C46.4647 43.855 46.5277 43.3631 46.7354 42.9262C46.9431 42.4892 47.2847 42.1298 47.7106 41.9002L51.5106 39.0452L50.7306 37.9102L52.1956 36.6552C52.0753 36.4884 51.9093 36.36 51.7177 36.2854C51.5261 36.2109 51.3169 36.1935 51.1156 36.2352C51.3456 34.6902 50.0256 33.3852 48.7706 32.4652C46.2156 30.5952 43.2706 29.0402 40.1406 28.8302C38.6057 28.7302 37.0657 28.9502 35.5307 28.8302C33.4607 28.7002 31.4507 28.0002 29.3757 27.9202C27.3007 27.8402 24.9707 28.6552 24.1007 30.5202C23.7307 31.3302 23.6807 32.2452 23.4007 33.0902C22.7757 34.9602 21.1257 36.2552 19.7208 37.6402C18.3158 39.0252 17.0108 40.8802 17.4008 42.8102C17.5544 43.4326 17.7951 44.0301 18.1158 44.5852L25.8657 59.5502C26.125 59.0646 26.4968 58.6483 26.95 58.336C27.4032 58.0237 27.9247 57.8245 28.4707 57.7552C29.7457 57.6052 30.9707 58.1752 32.2607 58.3352C33.2173 58.4396 34.1851 58.3125 35.0823 57.9644C35.9795 57.6163 36.7798 57.0575 37.4157 56.3352C39.1257 54.3652 39.5406 49.3352 42.5106 48.8352C43.5606 48.6552 45.2406 49.9802 46.1556 49.4552C47.2306 48.8652 46.5756 45.4402 46.5556 44.3302Z" fill="#3F3D56"/>
<g opacity="0.1">
<path opacity="0.1" d="M52.4055 92.2402C55.8805 90.7402 58.3555 87.4402 59.5305 83.8452C60.7055 80.2502 60.6905 76.3452 60.2605 72.6052C60.0955 71.1552 59.8205 69.6052 58.8155 68.5452C55.5155 65.0452 45.5156 69.8552 45.4256 62.8252C45.3706 58.7702 50.8856 53.5002 54.9255 51.0352C54.5636 51.1317 54.208 51.2502 53.8605 51.3902C49.9356 53.0002 42.3606 59.4352 42.4056 64.1852C42.4956 71.2152 52.4955 66.4202 55.7955 69.9102C56.7955 70.9702 57.0755 72.5152 57.2405 73.9702C57.6705 77.7252 57.6805 81.6102 56.5105 85.2052C55.3405 88.8002 52.8605 92.1052 49.3856 93.6002C53.6555 94.2902 58.6305 94.7502 61.9955 92.3452C59.0405 93.1202 55.5355 92.7452 52.4055 92.2402Z" fill="black"/>
<path opacity="0.1" d="M68.2505 87.7801C67.8879 88.0212 67.5628 88.3144 67.2855 88.6501C70.3505 88.8501 73.8355 92.4201 76.9055 91.0851C77.4423 90.8498 77.9104 90.4815 78.2655 90.0151C74.9055 89.8851 71.2355 85.9001 68.2505 87.7801Z" fill="black"/>
</g>
<g opacity="0.1">
<path opacity="0.1" d="M50.7556 34.3002C50.6806 34.1902 50.6006 34.0802 50.5206 33.9752C50.5194 34.0906 50.511 34.2058 50.4956 34.3202C50.5812 34.3034 50.6685 34.2967 50.7556 34.3002V34.3002Z" fill="black"/>
<path opacity="0.1" d="M52.3256 36.6552C52.2053 36.4884 52.0393 36.36 51.8477 36.2855C51.656 36.2109 51.4469 36.1935 51.2456 36.2352C51.3012 35.8576 51.267 35.4721 51.1456 35.1102L50.1106 35.9952L50.8906 37.1252L47.0906 39.9852C46.6647 40.2148 46.3231 40.5742 46.1154 41.0112C45.9077 41.4482 45.8447 41.94 45.9356 42.4152C45.9356 43.5252 46.6106 46.9502 45.5306 47.5652C44.6206 48.0902 42.9356 46.7652 41.8906 46.9452C38.9206 47.4452 38.5056 52.4452 36.7956 54.4452C36.1598 55.1675 35.3595 55.7263 34.4623 56.0744C33.5651 56.4225 32.5973 56.5497 31.6407 56.4452C30.3657 56.2902 29.1407 55.7202 27.8507 55.8702C27.3043 55.9404 26.7825 56.1398 26.3286 56.452C25.8747 56.7642 25.5017 57.1801 25.2407 57.6652C22.6641 52.6852 20.0874 47.7069 17.5107 42.7302V42.8402C17.6683 43.4621 17.9105 44.0593 18.2307 44.6152L25.9707 59.5502C26.2317 59.0651 26.6047 58.6492 27.0586 58.337C27.5125 58.0248 28.0343 57.8254 28.5807 57.7552C29.8557 57.6052 31.0807 58.1752 32.3707 58.3352C33.3273 58.4397 34.2951 58.3125 35.1923 57.9644C36.0895 57.6163 36.8898 57.0575 37.5256 56.3352C39.2356 54.3652 39.6506 49.3352 42.6206 48.8352C43.6656 48.6552 45.3506 49.9802 46.2606 49.4552C47.3406 48.8402 46.6856 45.4152 46.6656 44.3052C46.6113 43.7947 46.687 43.2787 46.8856 42.8052C47.1227 42.4243 47.4422 42.1013 47.8206 41.8602L51.6206 39.0052L50.8406 37.8702L52.3256 36.6552Z" fill="black"/>
</g>
<path opacity="0.1" d="M8.50076 145.21C8.00076 147.345 7.68576 149.525 7.00077 151.61C6.70077 152.55 6.33077 153.465 6.03577 154.405C5.77078 155.26 5.57078 156.125 5.36578 156.995L4.55078 160.495C4.79757 160.482 5.03804 160.413 5.25323 160.291C5.46842 160.17 5.65244 160 5.79078 159.795C6.06449 159.383 6.27199 158.931 6.40577 158.455L7.77077 154.395L8.77076 151.395C10.1908 147.17 11.6157 142.935 12.6957 138.605C12.9657 137.535 13.1957 136.465 13.4307 135.385C13.5207 134.97 14.1757 132.655 13.5057 132.85C13.0307 132.985 12.2257 135.095 12.0057 135.555C11.5057 136.475 11.0957 137.415 10.6907 138.37C9.76515 140.583 9.03242 142.871 8.50076 145.21V145.21Z" fill="black"/>
<path d="M34.5807 89.2202C34.5807 89.2202 32.3207 88.4052 31.7657 89.3752C31.7657 89.3752 35.8757 90.8752 36.7057 93.0352C36.7057 93.0352 37.7657 91.9451 36.3157 90.5601L36.0457 88.5302L34.5807 89.2202Z" fill="#00A66C"/>
<path d="M38.3306 86.1552C38.3306 86.1552 38.4556 85.1252 37.9356 85.0152C37.4156 84.9052 33.8956 85.1102 34.4606 89.0152C35.0256 92.9202 39.0956 91.4552 39.0956 91.4552L40.8806 89.3752C40.8806 89.3752 41.2606 86.6202 38.7606 85.9552L38.3306 86.1552Z" fill="#00A66C"/>
<path opacity="0.1" d="M35.4957 84.0352C35.4957 84.0352 32.4257 85.5851 33.9157 89.4801L35.0707 88.8101C35.0707 88.8101 36.5157 85.4302 35.4957 84.0352Z" fill="black"/>
<path d="M35.3856 83.9551C35.3856 83.9551 32.3206 85.5051 33.8106 89.4001L34.7056 89.9251C34.7056 89.9251 36.4106 85.3501 35.3856 83.9551Z" fill="#00A66C"/>
<path opacity="0.1" d="M40.3955 87.9551C40.5565 88.4968 40.8857 88.9732 41.3355 89.3151C42.0555 89.8151 40.6205 90.9701 40.6205 90.9701C40.6205 90.9701 38.6805 93.1751 36.8455 92.1001C35.7506 90.2551 36.5755 90.0001 36.5755 90.0001C36.5755 90.0001 38.8655 87.4851 40.3955 87.9551Z" fill="black"/>
<path d="M40.4705 88.0601C40.6314 88.6018 40.9607 89.0782 41.4105 89.4201C42.1255 89.9201 40.6905 91.0751 40.6905 91.0751C40.6905 91.0751 38.7555 93.2801 36.9155 92.2051C35.0755 91.1301 36.6455 90.1101 36.6455 90.1101C36.6455 90.1101 38.9155 87.5901 40.4705 88.0601Z" fill="#00A66C"/>
<path d="M33.5107 84.0052C33.5107 84.0052 31.2407 84.7952 31.4207 85.9002C31.4207 85.9002 35.5607 84.4802 37.5657 85.6352C37.5657 85.6352 37.7007 84.1352 35.7057 83.9552L34.2057 82.5452L33.5107 84.0052Z" fill="#5F3839"/>
<path d="M34.4707 79.2502C34.4707 79.2502 33.9207 78.3702 33.4707 78.6102C33.0207 78.8502 30.3957 81.2252 33.2807 83.8952C36.1657 86.5652 38.4207 82.8952 38.4207 82.8952L38.4707 80.1552C38.4707 80.1552 37.0307 77.7752 34.6707 78.8352L34.4707 79.2502Z" fill="#00A66C"/>
<path opacity="0.1" d="M30.9707 79.4001C30.9707 79.4001 29.5607 82.5351 33.1757 84.6251L33.6507 83.3802C33.6507 83.3802 32.6307 79.8451 30.9707 79.4001Z" fill="black"/>
<path d="M30.8207 79.4052C30.8207 79.4052 29.4157 82.5402 33.0257 84.6302L34.0507 84.4752C34.0507 84.4752 32.4957 79.8452 30.8207 79.4052Z" fill="#00A66C"/>
<path opacity="0.1" d="M37.2306 79.3602C37.6976 79.681 38.2543 79.8455 38.8206 79.8302C39.7006 79.7752 39.3206 81.5652 39.3206 81.5652C39.3206 81.5652 39.2006 84.5002 37.0956 84.8202C35.0956 84.0752 35.5656 83.3602 35.5656 83.3602C35.5656 83.3602 35.7456 79.9602 37.2306 79.3602Z" fill="black"/>
<path d="M37.3405 79.4102C37.8071 79.7319 38.364 79.8965 38.9305 79.8802C39.8105 79.8252 39.4305 81.6152 39.4305 81.6152C39.4305 81.6152 39.3155 84.5501 37.2105 84.8701C35.1055 85.1901 35.6805 83.4102 35.6805 83.4102C35.6805 83.4102 35.8555 80.0102 37.3405 79.4102Z" fill="#00A66C"/>
<path d="M25.7957 84.9402C25.7957 84.9402 26.5157 84.3102 26.9107 85.1402L26.5757 87.0002L24.5107 105.42L23.1907 107.835L25.7957 84.9402Z" fill="#00A66C"/>
<path d="M31.9157 80.6552L23.2657 108.755L24.0507 109.19L32.6307 80.8401L31.9157 80.6552Z" fill="#00A66C"/>
<path d="M29.5507 93.3951C29.5507 93.3951 27.6107 100.73 25.4707 103.655C23.3307 106.58 23.7357 109.005 23.7357 109.005L24.4357 109.22L30.1857 93.9051L29.5507 93.3951Z" fill="#00A66C"/>
<path d="M36.6207 86.9402L24.2808 108.43L24.8708 108.75L37.5957 87.0952L36.6207 86.9402Z" fill="#00A66C"/>
<path d="M39.3456 92.6152L23.9757 108.635L24.4357 109.23L40.0006 92.9752L39.3456 92.6152Z" fill="#00A66C"/>
<path d="M40.3306 93.8051C40.3306 93.8051 40.1256 92.9051 39.4356 93.0751C38.7456 93.2451 25.1606 108.33 25.1606 108.33L25.7356 108.78L40.3306 93.8051Z" fill="#00A66C"/>
<path d="M25.1307 83.9701C25.1307 83.9701 22.8107 84.6001 22.9207 85.7151C22.9207 85.7151 27.1456 84.5851 29.0656 85.8751C29.0656 85.8751 29.3056 84.3751 27.3256 84.0701L25.9356 82.5701L25.1307 83.9701Z" fill="#00A66C"/>
<path d="M26.4307 79.2901C26.4307 79.2901 25.9307 78.3751 25.4557 78.5851C24.9807 78.7951 22.2057 80.9801 24.8957 83.8401C27.5857 86.7001 30.0957 83.1801 30.0957 83.1801L30.3607 80.4501C30.3607 80.4501 29.0907 77.9802 26.6607 78.8702L26.4307 79.2901Z" fill="#00A66C"/>
<path opacity="0.1" d="M22.9058 79.2001C22.9058 79.2001 21.2808 82.2301 24.7407 84.5651L25.3007 83.3551C25.3007 83.3551 24.5407 79.7551 22.9058 79.2001Z" fill="black"/>
<path d="M22.7707 79.1951C22.7707 79.1951 21.1457 82.2251 24.6057 84.5601L25.6407 84.4801C25.6407 84.4801 24.4107 79.7501 22.7707 79.1951Z" fill="#00A66C"/>
<path opacity="0.1" d="M29.1657 79.5952C29.6119 79.9413 30.1562 80.1373 30.7206 80.1552C31.6006 80.1552 31.0806 81.9201 31.0806 81.9201C31.0806 81.9201 30.7606 84.8401 28.6407 85.0151C26.6857 84.1351 27.2157 83.4501 27.2157 83.4501C27.2157 83.4501 27.6457 80.0902 29.1657 79.5952Z" fill="black"/>
<path d="M29.2707 79.6552C29.7152 80.0069 30.2593 80.2099 30.8256 80.2352C31.7056 80.2352 31.1856 82.0001 31.1856 82.0001C31.1856 82.0001 30.8656 84.9151 28.7456 85.0901C26.6257 85.2651 27.3207 83.5301 27.3207 83.5301C27.3207 83.5301 27.7507 80.1552 29.2707 79.6552Z" fill="#00A66C"/>
<path d="M31.0457 79.6552C31.0457 79.6552 28.7257 80.2852 28.8307 81.4002C28.8307 81.4002 33.0557 80.2702 34.9757 81.5552C34.9757 81.5552 35.2207 80.0552 33.2357 79.7552L31.8457 78.2552L31.0457 79.6552Z" fill="#00A66C"/>
<path d="M32.3407 74.9852C32.3407 74.9852 31.8407 74.0702 31.3657 74.2802C30.8907 74.4902 28.1157 76.6752 30.8057 79.5352C33.4957 82.3952 36.0057 78.8752 36.0057 78.8752L36.2707 76.1452C36.2707 76.1452 35.0007 73.6752 32.5707 74.5652L32.3407 74.9852Z" fill="#00A66C"/>
<path opacity="0.1" d="M28.8157 74.8951C28.8157 74.8951 27.1907 77.9251 30.6507 80.2601L31.2107 79.0501C31.2107 79.0501 30.4707 75.4501 28.8157 74.8951Z" fill="black"/>
<path d="M28.6807 74.8901C28.6807 74.8901 27.0607 77.9201 30.5157 80.2551L31.5507 80.1701C31.5507 80.1701 30.3207 75.4451 28.6807 74.8901Z" fill="#00A66C"/>
<path opacity="0.1" d="M35.0807 75.2902C35.523 75.6419 36.066 75.8433 36.6307 75.8652C37.5107 75.8652 36.9907 77.6302 36.9907 77.6302C36.9907 77.6302 36.6707 80.5502 34.5507 80.7252C32.6007 79.8402 33.1257 79.1602 33.1257 79.1602C33.1257 79.1602 33.5557 75.7852 35.0807 75.2902Z" fill="black"/>
<path d="M35.1857 75.3452C35.628 75.697 36.171 75.8984 36.7357 75.9202C37.6157 75.9202 37.0957 77.6852 37.0957 77.6852C37.0957 77.6852 36.7757 80.6052 34.6557 80.7802C32.5357 80.9552 33.2307 79.2152 33.2307 79.2152C33.2307 79.2152 33.6607 75.8402 35.1857 75.3452Z" fill="#00A66C"/>
<path d="M36.0407 85.6552C36.0407 85.6552 33.7807 84.8402 33.2257 85.8101C33.2257 85.8101 37.3357 87.3102 38.1707 89.4701C38.1707 89.4701 39.2307 88.3801 37.7807 86.9951L37.5107 84.9651L36.0407 85.6552Z" fill="#00A66C"/>
<path d="M39.7905 82.5752C39.7905 82.5752 39.9155 81.5452 39.3955 81.4352C38.8755 81.3252 35.3606 81.5302 35.8956 85.4352C36.4306 89.3401 40.5355 87.8751 40.5355 87.8751L42.3205 85.7952C42.3205 85.7952 42.6955 83.0402 40.1955 82.3752L39.7905 82.5752Z" fill="#00A66C"/>
<path opacity="0.1" d="M36.9705 80.4752C36.9705 80.4752 33.9006 82.0251 35.3955 85.9201L36.5455 85.2501C36.5455 85.2501 37.9705 81.8702 36.9705 80.4752Z" fill="black"/>
<path d="M36.8506 80.3951C36.8506 80.3951 33.7806 81.9451 35.2706 85.8401L36.1656 86.3651C36.1656 86.3651 37.8706 81.7901 36.8506 80.3951Z" fill="#00A66C"/>
<path opacity="0.1" d="M41.8555 84.3951C42.0189 84.9356 42.3477 85.4112 42.7955 85.7551C43.5155 86.2551 42.0805 87.4101 42.0805 87.4101C42.0805 87.4101 40.1405 89.6151 38.3055 88.5401C37.2155 86.7001 38.0355 86.4401 38.0355 86.4401C38.0355 86.4401 40.3255 83.9251 41.8555 84.3951Z" fill="black"/>
<path d="M41.9106 84.5001C42.0721 85.0429 42.4011 85.5207 42.8506 85.8651C43.5706 86.3651 42.1356 87.5151 42.1356 87.5151C42.1356 87.5151 40.1956 89.7201 38.3606 88.6501C36.5256 87.5801 38.0906 86.5501 38.0906 86.5501C38.0906 86.5501 40.3806 84.0301 41.9106 84.5001Z" fill="#00A66C"/>
<path d="M39.6656 91.7802C39.6656 91.7802 37.4056 90.9652 36.8556 91.9402C36.8556 91.9402 40.9606 93.4402 41.7956 95.6002C41.7956 95.6002 42.8556 94.5051 41.4056 93.1252L41.1356 91.0901L39.6656 91.7802Z" fill="#00A66C"/>
<path d="M43.4156 88.6952C43.4156 88.6952 43.5406 87.6652 43.0206 87.5602C42.5006 87.4552 38.9857 87.6502 39.5507 91.5602C40.1156 95.4702 44.1856 94.0052 44.1856 94.0052L45.9706 91.9202C45.9706 91.9202 46.3456 89.1702 43.8456 88.5052L43.4156 88.6952Z" fill="#00A66C"/>
<path opacity="0.1" d="M40.5805 86.5952C40.5805 86.5952 37.5105 88.1451 39.0055 92.0451L40.1555 91.3751C40.1555 91.3751 41.6055 87.9902 40.5805 86.5952Z" fill="black"/>
<path d="M40.4706 86.5151C40.4706 86.5151 37.4006 88.0651 38.8906 91.9601L39.7856 92.4851C39.7856 92.4851 41.4956 87.9101 40.4706 86.5151Z" fill="#00A66C"/>
<path opacity="0.1" d="M45.4706 90.5152C45.6315 91.0569 45.9585 91.5344 46.4056 91.8802C47.1256 92.3802 45.6906 93.5301 45.6906 93.5301C45.6906 93.5301 43.7506 95.7351 41.9157 94.6651C40.8257 92.8201 41.6456 92.5652 41.6456 92.5652C41.6456 92.5652 43.9706 90.0452 45.4706 90.5152Z" fill="black"/>
<path d="M45.5356 90.6252C45.6965 91.1668 46.0257 91.6432 46.4756 91.9852C47.1956 92.4852 45.7606 93.6402 45.7606 93.6402C45.7606 93.6402 43.8206 95.8452 41.9856 94.7702C40.1506 93.6952 41.7156 92.6702 41.7156 92.6702C41.7156 92.6702 44.0056 90.1552 45.5356 90.6252Z" fill="#00A66C"/>
<path d="M40.1255 93.8351C40.1255 93.8351 37.8655 93.0201 37.3105 93.9951C37.3105 93.9951 41.4205 95.4951 42.2505 97.6551C42.2505 97.6551 43.3155 96.5601 41.8655 95.1801L41.5905 93.1451L40.1255 93.8351Z" fill="#00A66C"/>
<path d="M43.8755 90.7502C43.8755 90.7502 44.0005 89.7252 43.4805 89.6152C42.9605 89.5052 39.4456 89.7052 40.0056 93.6152C40.5656 97.5252 44.6405 96.0602 44.6405 96.0602L46.4255 93.9802C46.4255 93.9802 46.8055 91.2252 44.3055 90.5602L43.8755 90.7502Z" fill="#00A66C"/>
<path opacity="0.1" d="M41.0406 88.6552C41.0406 88.6552 37.9706 90.2002 39.4706 94.1002L40.6256 93.4301C40.6256 93.4301 42.0606 90.0451 41.0406 88.6552Z" fill="black"/>
<path d="M40.9306 88.5701C40.9306 88.5701 37.8656 90.1201 39.3556 94.0151L40.2506 94.5451C40.2506 94.5451 41.9706 89.9651 40.9306 88.5701Z" fill="#00A66C"/>
<path opacity="0.1" d="M45.9406 92.5701C46.1021 93.1129 46.4311 93.5907 46.8806 93.9351C47.6006 94.4351 46.1656 95.5851 46.1656 95.5851C46.1656 95.5851 44.2256 97.7951 42.3906 96.7201C41.2956 94.8752 42.1206 94.6201 42.1206 94.6201C42.1206 94.6201 44.4106 92.1001 45.9406 92.5701Z" fill="black"/>
<path d="M45.9956 92.6802C46.1565 93.2218 46.4858 93.6982 46.9356 94.0402C47.6556 94.5402 46.2156 95.6952 46.2156 95.6952C46.2156 95.6952 44.2806 97.9002 42.4456 96.8252C40.6106 95.7502 42.1706 94.7252 42.1706 94.7252C42.1706 94.7252 44.4706 92.2102 45.9956 92.6802Z" fill="#00A66C"/>
<path d="M29.1156 92.4952C29.1156 92.4952 26.8557 91.6752 26.3007 92.6502C26.3007 92.6502 30.4106 94.1502 31.2406 96.3102C31.2406 96.3102 32.3006 95.2202 30.8506 93.8352L30.5806 91.8002L29.1156 92.4952Z" fill="#00A66C"/>
<path d="M32.8658 89.4052C32.8658 89.4052 32.9907 88.3802 32.4708 88.2702C31.9508 88.1602 28.4308 88.3652 28.9958 92.2702C29.5608 96.1752 33.6307 94.7152 33.6307 94.7152L35.4157 92.6352C35.4157 92.6352 35.7957 89.8802 33.2957 89.2152L32.8658 89.4052Z" fill="#00A66C"/>
<path opacity="0.1" d="M30.0307 87.3102C30.0307 87.3102 26.9707 88.8602 28.4707 92.7552L29.6257 92.0852C29.6257 92.0852 31.0507 88.7052 30.0307 87.3102Z" fill="black"/>
<path d="M29.9207 87.2302C29.9207 87.2302 26.8557 88.7752 28.3457 92.6752L29.2407 93.1752C29.2407 93.1752 30.9707 88.6252 29.9207 87.2302Z" fill="#00A66C"/>
<path opacity="0.1" d="M34.9307 91.2252C35.091 91.7685 35.4202 92.2466 35.8707 92.5902C36.5907 93.0902 35.1557 94.2452 35.1557 94.2452C35.1557 94.2452 33.2157 96.4502 31.3807 95.3752C30.2857 93.5302 31.1107 93.2752 31.1107 93.2752C31.1107 93.2752 33.4007 90.7552 34.9307 91.2252Z" fill="black"/>
<path d="M34.9706 91.3351C35.1315 91.8768 35.4608 92.3532 35.9106 92.6951C36.6256 93.1951 35.1906 94.3502 35.1906 94.3502C35.1906 94.3502 33.2556 96.5551 31.4156 95.4801C29.5757 94.4051 31.1456 93.3802 31.1456 93.3802C31.1456 93.3802 33.4706 90.8651 34.9706 91.3351Z" fill="#00A66C"/>
<path d="M30.3506 85.7602C30.3506 85.7602 28.0856 84.9402 27.5356 85.9152C27.5356 85.9152 31.6456 87.4152 32.4756 89.5752C32.4756 89.5752 33.5356 88.4852 32.0856 87.1002L31.8156 85.0652L30.3506 85.7602Z" fill="#00A66C"/>
<path d="M34.1007 82.6551C34.1007 82.6551 34.2257 81.6552 33.7057 81.5202C33.1857 81.3852 29.6657 81.6152 30.2057 85.5201C30.7457 89.4251 34.8407 87.9651 34.8407 87.9651L36.6256 85.8851C36.6256 85.8851 37.0006 83.1301 34.5007 82.4651L34.1007 82.6551Z" fill="#00A66C"/>
<path opacity="0.1" d="M31.2606 80.5751C31.2606 80.5751 28.1956 82.1201 29.6856 86.0201L30.8406 85.3501C30.8406 85.3501 32.2856 81.9701 31.2606 80.5751Z" fill="black"/>
<path d="M31.1557 80.4952C31.1557 80.4952 28.0857 82.0402 29.5807 85.9402L30.4707 86.4652C30.4707 86.4652 32.1807 81.8902 31.1557 80.4952Z" fill="#00A66C"/>
<path opacity="0.1" d="M36.1657 84.4902C36.3272 85.0329 36.6562 85.5107 37.1057 85.8552C37.8257 86.3552 36.3907 87.5102 36.3907 87.5102C36.3907 87.5102 34.4507 89.7152 32.6157 88.6402C31.5207 86.7952 32.3457 86.5402 32.3457 86.5402C32.3457 86.5402 34.6307 84.0202 36.1657 84.4902Z" fill="black"/>
<path d="M36.2156 84.6002C36.3765 85.1419 36.7058 85.6182 37.1556 85.9602C37.8756 86.4602 36.4406 87.6152 36.4406 87.6152C36.4406 87.6152 34.5006 89.8202 32.6656 88.7452C30.8307 87.6702 32.3956 86.6452 32.3956 86.6452C32.3956 86.6452 34.6856 84.1552 36.2156 84.6002Z" fill="#00A66C"/>
<path d="M22.8207 95.9451C22.8207 95.9451 29.0157 96.6301 32.3807 107.405C35.7457 118.18 25.1607 110.12 25.1607 110.12C25.1607 110.12 22.3707 110.68 21.9357 105.055C21.5007 99.4301 22.8207 95.9451 22.8207 95.9451Z" fill="#FBBEBE"/>
<path d="M23.508 103.854L22.0272 104.511C21.853 104.588 21.774 104.791 21.8507 104.964C21.9274 105.137 22.1307 105.214 22.3049 105.137L23.7858 104.48C23.9599 104.403 24.039 104.2 23.9623 104.027C23.8856 103.854 23.6822 103.777 23.508 103.854Z" fill="#E3E8F4"/>
<path opacity="0.1" d="M88.0803 34.3803L87.0803 33.4653C83.4853 30.1703 81.1153 28.0253 81.1153 25.3603C81.1066 24.8531 81.1996 24.3493 81.389 23.8787C81.5783 23.4081 81.86 22.9802 82.2176 22.6203C82.5751 22.2605 83.0011 21.9759 83.4705 21.7836C83.9399 21.5912 84.443 21.4949 84.9503 21.5003C85.5494 21.503 86.1408 21.6364 86.6831 21.8912C87.2254 22.1459 87.7056 22.5159 88.0903 22.9753C88.4751 22.5161 88.9554 22.1464 89.4977 21.8916C90.0399 21.6369 90.6311 21.5034 91.2302 21.5003C91.7379 21.4942 92.2416 21.59 92.7116 21.7821C93.1815 21.9742 93.6082 22.2586 93.9662 22.6185C94.3243 22.9784 94.6065 23.4065 94.7961 23.8775C94.9857 24.3484 95.079 24.8527 95.0702 25.3603C95.0702 28.0253 92.6952 30.1703 89.1053 33.4653L88.0803 34.3803Z" fill="#00A66C"/>
<path opacity="0.5" d="M196.599 18.449C194.935 16.1853 191.493 18.6405 193.05 20.9832C193.466 21.5949 193.903 22.19 194.323 22.7559C199.45 29.676 202.104 38.0775 204.393 46.3791C204.951 48.4181 205.496 50.5944 204.855 52.6209C205.77 47.2113 205.175 41.6561 203.794 36.3589C202.412 31.0617 200.261 26.0016 198.039 21.004C197.651 20.1036 197.169 19.247 196.599 18.449Z" fill="#00A66C" fill-opacity="0.63"/>
<path d="M163.339 33.0008C159.881 32.8968 159.444 38.1399 162.885 38.4104C163.788 38.4811 164.699 38.5019 165.565 38.5269C176.151 38.814 186.163 42.6548 195.779 46.7827C198.143 47.7939 200.619 48.9299 202.021 51.0979C197.685 46.0712 191.976 42.3885 185.901 39.6795C179.825 36.9706 173.359 35.1979 166.892 33.5376C165.731 33.2295 164.539 33.0495 163.339 33.0008V33.0008Z" fill="#00A66C" fill-opacity="0.63"/>
<path opacity="0.2" d="M164.304 45.8881C162.124 45.9713 162.615 49.0714 164.812 49.0922C165.386 49.0922 165.96 49.0714 166.509 49.0464C173.167 48.7759 180.025 50.6194 186.658 52.6459C188.285 53.1411 190.008 53.707 191.189 54.9262C187.736 52.1507 183.616 50.2199 179.413 48.88C175.21 47.5401 170.895 46.7661 166.597 46.0628C165.84 45.9298 165.072 45.8713 164.304 45.8881Z" fill="#00A66C" fill-opacity="0.63"/>
<path opacity="0.5" d="M208.983 103.567C209.603 105.647 212.482 104.399 211.958 102.281C211.821 101.723 211.65 101.174 211.492 100.65C209.574 94.2455 209.665 87.1673 209.982 80.2388C210.056 78.5369 210.177 76.7309 211.063 75.2828C209.232 79.3192 208.384 83.7842 208.13 88.1826C207.876 92.581 208.196 96.9586 208.579 101.295C208.638 102.063 208.773 102.824 208.983 103.567V103.567Z" fill="#00A66C" fill-opacity="0.63"/>
<path opacity="0.2" d="M168.282 15.5404C166.967 15.3115 166.867 17.2257 168.178 17.5169C168.524 17.5919 168.869 17.6501 169.198 17.7084C173.222 18.395 177.071 20.3632 180.774 22.4147C181.685 22.9182 182.638 23.4758 183.192 24.3538C181.434 22.2814 179.31 20.5505 176.925 19.248C174.579 17.9603 172.141 16.8477 169.63 15.919C169.195 15.7472 168.743 15.6203 168.282 15.5404V15.5404Z" fill="#00A66C" fill-opacity="0.63"/>
<path d="M147.992 66.2739C144.663 67.9924 147.476 72.7029 150.905 71.1383C151.8 70.7222 152.678 70.2728 153.51 69.8359C163.701 64.5511 175.539 62.6078 187.178 61.0973C190.037 60.7311 193.083 60.4107 195.725 61.5426C188.522 59.5077 180.853 59.3413 173.438 60.2027C166.023 61.064 158.811 62.9241 151.671 64.884C150.401 65.2222 149.168 65.6879 147.992 66.2739V66.2739Z" fill="#00A66C" fill-opacity="0.63"/>
<path opacity="0.5" d="M157.513 84.6123C155.116 86.8469 158.857 89.4893 161.37 87.3421C162.028 86.7803 162.656 86.1853 163.255 85.6235C170.558 78.77 180.208 73.8889 189.816 69.3948C192.176 68.2921 201.884 67.1644 204.472 67.2268C197.706 67.8302 183.878 69.9441 177.732 72.7404C171.586 75.5367 165.894 79.003 160.288 82.5276C159.301 83.1348 158.371 83.8327 157.513 84.6123V84.6123Z" fill="#00A66C" fill-opacity="0.63"/>
<path d="M174.611 113.886C173.912 117.082 178.49 117.128 179.338 113.932C179.559 113.1 179.755 112.268 179.908 111.435C182.022 101.661 187.186 92.1732 192.538 83.0186C193.848 80.7715 201.197 74.3258 203.357 72.9026C198.13 77.2511 187.96 86.851 184.49 92.6434C181.02 98.4359 178.319 104.503 175.71 110.587C175.244 111.651 174.876 112.755 174.611 113.886V113.886Z" fill="#00A66C" fill-opacity="0.63"/>
<path d="M209.02 1.50873C207.389 -1.82024 202.724 0.917838 204.206 4.33003C204.593 5.22469 205.038 6.09855 205.454 6.93079C210.481 17.0966 212.208 28.8562 213.498 40.4119C213.818 43.2499 214.084 46.2709 212.936 48.88C215.041 41.7643 215.32 34.1618 214.6 26.8256C213.88 19.4893 212.154 12.2904 210.339 5.18725C210.024 3.91988 209.582 2.68748 209.02 1.50873V1.50873Z" fill="#00A66C" fill-opacity="0.63"/>
<path d="M183.021 7.1721C183.107 7.2222 183.204 7.25075 183.304 7.25533C183.483 7.25533 183.612 7.07223 183.687 6.90579C184.103 6.02361 183.862 4.87512 184.486 4.1261C185.124 4.89319 185.637 5.75526 186.009 6.68108L188.406 5.94039C188.518 6.4045 188.536 6.88653 188.458 7.35769C188.38 7.82885 188.208 8.27947 187.952 8.68263C188.372 8.86588 188.754 9.12549 189.08 9.44829C189.241 9.61211 189.354 9.81731 189.406 10.0413C189.458 10.2652 189.448 10.4992 189.375 10.7175C188.821 10.8518 188.251 10.9078 187.682 10.8839C187.772 11.9357 187.712 12.995 187.503 14.0298C187.499 14.1094 187.479 14.1873 187.444 14.2588C187.408 14.3304 187.359 14.394 187.299 14.4459C187.201 14.4844 187.095 14.4955 186.991 14.4779C186.888 14.4603 186.791 14.4147 186.712 14.346C185.885 13.8366 185.207 13.1192 184.744 12.2654L183.853 14.3585C183.787 14.5824 183.638 14.7729 183.437 14.8912C183.303 14.9392 183.156 14.9403 183.02 14.8942C182.885 14.8481 182.77 14.7576 182.692 14.6373C182.545 14.3911 182.454 14.1154 182.426 13.8301L182.093 11.8035C182.088 11.6988 182.05 11.5982 181.985 11.5164C181.884 11.4552 181.765 11.4303 181.648 11.4457C180.816 11.4207 179.971 11.4124 179.114 11.4207C178.968 10.9713 179.417 10.551 179.846 10.3638C180.275 10.1765 180.795 10.0309 181.011 9.61057C181.452 8.75753 180.308 7.56742 180.795 6.82672C181.361 5.95287 182.285 6.80592 183.021 7.1721Z" fill="#00A66C" fill-opacity="0.63"/>
<path opacity="0.5" d="M229.244 18.449C230.908 16.1853 234.354 18.6405 232.797 20.9832C232.381 21.5949 231.965 22.19 231.524 22.7559C226.397 29.676 223.742 38.0775 221.454 46.3791C220.896 48.4181 220.351 50.5944 220.992 52.6209C220.076 47.2113 220.672 41.6561 222.053 36.3589C223.435 31.0617 225.586 26.0016 227.808 21.004C228.196 20.1045 228.677 19.2481 229.244 18.449V18.449Z" fill="#00A66C" fill-opacity="0.63"/>
<path d="M262.496 33.0008C265.954 32.8968 266.391 38.1399 262.949 38.4104C262.046 38.4811 261.135 38.5019 260.27 38.5269C249.684 38.814 239.672 42.6548 230.055 46.7827C227.692 47.7939 225.216 48.9299 223.813 51.0979C228.149 46.0712 233.858 42.3885 239.934 39.6795C246.009 36.9706 252.472 35.1979 258.942 33.5376C260.104 33.2295 261.295 33.0495 262.496 33.0008V33.0008Z" fill="#00A66C" fill-opacity="0.63"/>
<path opacity="0.5" d="M261.543 45.8881C263.723 45.9713 263.232 49.0714 261.035 49.0922C260.461 49.0922 259.887 49.0714 259.337 49.0464C252.659 48.7759 245.822 50.6194 239.189 52.6459C237.562 53.1411 235.86 53.707 234.657 54.9262C238.111 52.1507 242.227 50.2199 246.434 48.88C250.64 47.5401 254.951 46.7661 259.25 46.0628C260.007 45.9296 260.775 45.8711 261.543 45.8881V45.8881Z" fill="#00A66C" fill-opacity="0.63"/>
<path opacity="0.2" d="M257.565 15.5404C258.88 15.3115 258.98 17.2257 257.669 17.5169C257.323 17.5919 256.978 17.6501 256.649 17.7084C252.625 18.395 248.776 20.3632 245.073 22.4147C244.162 22.9182 243.209 23.4758 242.655 24.3538C244.413 22.2814 246.537 20.5505 248.922 19.248C251.268 17.9603 253.706 16.8477 256.216 15.919C256.652 15.7472 257.104 15.6203 257.565 15.5404V15.5404Z" fill="#00A66C" fill-opacity="0.63"/>
<path opacity="0.2" d="M223.351 107.541C223.056 108.839 221.25 108.194 221.487 106.871C221.55 106.525 221.629 106.184 221.704 105.859C222.623 101.881 222.29 97.5704 221.824 93.3759C221.708 92.3397 221.566 91.2453 220.967 90.3964C222.199 92.8143 222.976 95.4377 223.26 98.1363C223.535 100.796 223.616 103.471 223.501 106.142C223.497 106.612 223.447 107.081 223.351 107.541V107.541Z" fill="#00A66C" fill-opacity="0.63"/>
<path opacity="0.5" d="M256.72 98.8894C257.748 100.629 255.226 100.512 254.119 98.7688C253.828 98.3152 253.562 97.8574 253.308 97.4205C250.179 92.1025 245.402 86.8427 240.633 81.7619C239.459 80.5135 238.186 79.2027 236.705 78.3705C240.45 80.9203 243.904 83.8745 247.004 87.1798C250.079 90.3964 252.796 93.7462 255.455 97.0918C255.917 97.6618 256.339 98.2624 256.72 98.8894V98.8894Z" fill="#00A66C" fill-opacity="0.63"/>
<path opacity="0.2" d="M165.419 98.8894C164.391 100.629 166.913 100.512 168.024 98.7688C168.311 98.3152 168.577 97.8574 168.835 97.4205C171.961 92.1025 176.717 86.8427 181.51 81.7619C182.684 80.5135 183.957 79.2027 185.439 78.3705C181.689 80.9195 178.231 83.8738 175.127 87.1798C172.052 90.3964 169.335 93.7462 166.676 97.0918C166.217 97.6621 165.797 98.2627 165.419 98.8894Z" fill="#00A66C" fill-opacity="0.63"/>
<path opacity="0.2" d="M198.8 107.541C199.096 108.839 200.881 108.194 200.665 106.871C200.602 106.525 200.523 106.184 200.448 105.859C199.529 101.881 199.861 97.5704 200.327 93.3759C200.444 92.3397 200.585 91.2453 201.185 90.3964C199.95 92.8179 199.172 95.4457 198.888 98.1488C198.612 100.808 198.531 103.484 198.646 106.155C198.653 106.621 198.704 107.085 198.8 107.541V107.541Z" fill="#00A66C" fill-opacity="0.63"/>
<path opacity="0.2" d="M247.045 28.6024C248.356 28.3735 248.456 30.2919 247.145 30.579C246.804 30.658 246.458 30.7121 246.13 30.7704C242.106 31.457 238.257 33.4253 234.549 35.4767C233.642 35.9844 232.685 36.5378 232.136 37.4159C233.888 35.3476 236.003 33.6172 238.377 32.3101C240.727 31.0258 243.166 29.9132 245.676 28.9811C246.119 28.8118 246.578 28.685 247.045 28.6024V28.6024Z" fill="#00A66C" fill-opacity="0.63"/>
<path opacity="0.2" d="M234.77 2.95681C235.906 2.25357 236.713 3.99295 235.602 4.75029C235.311 4.95003 235.011 5.13312 234.728 5.30789C231.253 7.44676 228.42 10.7175 225.748 14.0007C225.095 14.8079 224.417 15.6652 224.234 16.7013C225.088 14.124 226.41 11.726 228.133 9.62723C229.833 7.56229 231.681 5.62361 233.663 3.8265C234.003 3.50208 234.374 3.21087 234.77 2.95681V2.95681Z" fill="#00A66C" fill-opacity="0.63"/>
<path d="M277.855 66.2739C281.184 67.9924 278.371 72.7029 274.942 71.1383C274.043 70.7222 273.169 70.2728 272.333 69.8359C262.146 64.5511 250.308 62.6078 238.665 61.0973C235.81 60.7311 232.764 60.4107 230.122 61.5426C237.325 59.5077 244.994 59.3413 252.409 60.2027C259.824 61.064 267.036 62.9241 274.176 64.884C275.446 65.2222 276.678 65.6879 277.855 66.2739V66.2739Z" fill="#00A66C" fill-opacity="0.63"/>
<path opacity="0.5" d="M268.33 84.6123C270.727 86.8469 266.986 89.4893 264.472 87.3421C263.811 86.7803 263.186 86.1853 262.587 85.6235C255.284 78.77 245.635 73.8889 236.026 69.3948C233.667 68.2921 223.959 67.1644 221.366 67.2268C228.137 67.8302 241.964 69.9441 248.11 72.7404C254.257 75.5367 259.949 79.003 265.55 82.5276C266.54 83.1337 267.471 83.8317 268.33 84.6123V84.6123Z" fill="#00A66C" fill-opacity="0.63"/>
<path d="M240.096 117.557C240.391 120.819 235.839 120.291 235.398 117.016C235.286 116.158 235.215 115.301 235.144 114.481C234.275 104.495 230.338 94.4286 226.177 84.6706C225.157 82.2779 218.687 74.9625 216.702 73.2772C221.342 78.2456 230.234 89.044 232.93 95.2234C235.627 101.403 237.574 107.786 239.401 114.149C239.737 115.261 239.97 116.402 240.096 117.557V117.557Z" fill="#00A66C" fill-opacity="0.63"/>
<path d="M242.817 7.1721C242.731 7.2222 242.634 7.25075 242.534 7.25533C242.356 7.25533 242.227 7.07223 242.152 6.90579C241.736 6.02361 241.977 4.87512 241.353 4.1261C240.715 4.89319 240.201 5.75526 239.83 6.68108L237.433 5.94039C237.32 6.4045 237.302 6.88653 237.38 7.35769C237.458 7.82885 237.63 8.27947 237.886 8.68263C237.466 8.86588 237.084 9.12549 236.759 9.44829C236.597 9.61211 236.484 9.81731 236.432 10.0413C236.38 10.2652 236.391 10.4992 236.463 10.7175C237.017 10.8518 237.587 10.9078 238.157 10.8839C238.066 11.9357 238.127 12.995 238.336 14.0298C238.34 14.1094 238.36 14.1873 238.395 14.2588C238.43 14.3304 238.479 14.394 238.54 14.4459C238.637 14.4844 238.744 14.4955 238.847 14.4779C238.95 14.4603 239.047 14.4147 239.126 14.346C239.953 13.8366 240.632 13.1192 241.095 12.2654L241.985 14.3585C242.051 14.5824 242.2 14.7729 242.401 14.8912C242.536 14.9392 242.683 14.9403 242.818 14.8942C242.953 14.8481 243.069 14.7576 243.146 14.6373C243.294 14.3917 243.383 14.1156 243.408 13.8301L243.741 11.8035C243.75 11.6988 243.789 11.5989 243.854 11.5164C243.955 11.4412 244.081 11.4057 244.207 11.4165C245.04 11.3916 245.884 11.3833 246.741 11.3916C246.887 10.9422 246.438 10.5219 246.009 10.3346C245.58 10.1474 245.06 10.0017 244.844 9.58145C244.403 8.7284 245.543 7.53829 245.06 6.7976C244.482 5.95287 243.562 6.80592 242.817 7.1721Z" fill="#00A66C" fill-opacity="0.63"/>
<path opacity="0.2" d="M250.05 105.793C249.965 105.847 249.867 105.876 249.767 105.876C249.588 105.876 249.459 105.697 249.384 105.531C248.968 104.644 249.209 103.496 248.585 102.751C247.946 103.516 247.432 104.377 247.062 105.302L244.665 104.561C244.553 105.026 244.535 105.509 244.613 105.98C244.691 106.452 244.863 106.904 245.119 107.308C244.698 107.489 244.315 107.749 243.991 108.073C243.833 108.235 243.723 108.437 243.671 108.657C243.618 108.876 243.627 109.106 243.695 109.322C244.249 109.457 244.819 109.515 245.389 109.492C245.299 110.544 245.359 111.603 245.568 112.638C245.563 112.732 245.588 112.825 245.639 112.904C245.69 112.983 245.765 113.044 245.853 113.077C245.941 113.111 246.037 113.116 246.128 113.092C246.219 113.067 246.299 113.015 246.359 112.942C247.185 112.432 247.864 111.715 248.327 110.861L249.217 112.988C249.285 113.211 249.433 113.401 249.633 113.52C249.769 113.567 249.915 113.567 250.051 113.52C250.186 113.474 250.301 113.383 250.378 113.262C250.526 113.017 250.616 112.741 250.64 112.455L250.973 110.428C250.981 110.325 251.021 110.226 251.086 110.146C251.186 110.067 251.313 110.03 251.439 110.041C252.272 110.022 253.116 110.014 253.974 110.017C254.119 109.567 253.67 109.151 253.241 108.96C252.813 108.768 252.292 108.631 252.076 108.211C251.635 107.353 252.775 106.163 252.292 105.427C251.71 104.574 250.786 105.427 250.05 105.793Z" fill="#00A66C" fill-opacity="0.63"/>
<path d="M270.344 39.6879C270.257 39.7374 270.16 39.7659 270.061 39.7711C269.878 39.7711 269.753 39.588 269.678 39.4215C269.262 38.5352 269.503 37.3867 268.875 36.6418C268.237 37.4089 267.723 38.271 267.352 39.1968L264.959 38.452C264.846 38.9168 264.829 39.3995 264.907 39.8713C264.984 40.3432 265.157 40.7945 265.413 41.1984C264.992 41.3806 264.61 41.6403 264.285 41.964C264.124 42.1279 264.011 42.3331 263.959 42.557C263.906 42.781 263.917 43.015 263.99 43.2332C264.544 43.3676 265.114 43.4236 265.683 43.3997C265.593 44.4515 265.653 45.5108 265.862 46.5455C265.865 46.6254 265.884 46.7037 265.919 46.7754C265.955 46.8472 266.005 46.9106 266.066 46.9617C266.241 47.074 266.482 46.9617 266.653 46.8659C267.48 46.3565 268.158 45.6391 268.621 44.7853L269.511 46.9117C269.575 47.1312 269.715 47.3204 269.907 47.4444C270.042 47.4915 270.19 47.4918 270.326 47.445C270.462 47.3982 270.578 47.3071 270.656 47.1864C270.805 46.9412 270.894 46.6649 270.918 46.3791L271.251 44.3567C271.257 44.2516 271.296 44.1511 271.363 44.0696C271.464 43.9926 271.59 43.9555 271.717 43.9656C272.549 43.9462 273.394 43.9378 274.251 43.9406C274.397 43.4912 273.947 43.0751 273.515 42.8878C273.082 42.7006 272.57 42.5549 272.354 42.1347C271.912 41.2774 273.053 40.0873 272.57 39.3508C272.004 38.4645 271.08 39.3258 270.344 39.6879Z" fill="#00A66C" fill-opacity="0.63"/>
<path d="M189.209 115.684C189.091 115.756 188.956 115.797 188.818 115.801C188.564 115.801 188.402 115.547 188.281 115.318C187.715 114.07 188.039 112.484 187.166 111.444C186.277 112.512 185.561 113.712 185.043 115.002L181.714 113.97C181.557 114.616 181.532 115.288 181.641 115.944C181.749 116.601 181.99 117.228 182.347 117.79C181.76 118.044 181.226 118.407 180.774 118.859C180.548 119.087 180.389 119.372 180.316 119.685C180.243 119.997 180.257 120.323 180.358 120.628C181.128 120.815 181.921 120.894 182.713 120.861C182.59 122.327 182.674 123.804 182.963 125.247C182.982 125.463 183.085 125.663 183.25 125.804C183.495 125.958 183.816 125.804 184.082 125.667C185.236 124.952 186.183 123.948 186.829 122.754L188.077 125.717C188.164 126.023 188.361 126.287 188.63 126.457C188.819 126.522 189.024 126.522 189.212 126.457C189.4 126.392 189.562 126.267 189.671 126.1C189.878 125.758 190.003 125.374 190.037 124.976L190.503 122.155C190.505 122.003 190.559 121.856 190.657 121.739C190.797 121.631 190.972 121.58 191.148 121.597C192.327 121.564 193.505 121.551 194.681 121.56C194.885 120.936 194.265 120.353 193.657 120.091C193.05 119.829 192.338 119.625 192.038 119.042C191.423 117.848 193.012 116.192 192.338 115.164C191.522 113.986 190.237 115.176 189.209 115.684Z" fill="#00A66C" fill-opacity="0.63"/>
<path d="M155.453 41.6603C155.334 41.7326 155.197 41.7728 155.058 41.7768C154.808 41.7768 154.642 41.5229 154.525 41.2899C153.955 40.0416 154.284 38.4561 153.41 37.4158C152.514 38.4881 151.793 39.6943 151.271 40.9903L147.942 39.9583C147.785 40.6053 147.76 41.2773 147.868 41.9343C147.976 42.5912 148.215 43.2198 148.571 43.7825C147.986 44.038 147.453 44.4007 147.002 44.8519C146.777 45.0793 146.619 45.3643 146.546 45.6756C146.472 45.9869 146.486 46.3123 146.586 46.6163C147.358 46.8031 148.151 46.8829 148.945 46.8535C148.82 48.3185 148.904 49.7939 149.195 51.2352C149.203 51.3427 149.232 51.4474 149.282 51.5432C149.331 51.639 149.399 51.7239 149.482 51.7928C149.727 51.9509 150.048 51.7928 150.293 51.6597C151.449 50.9468 152.396 49.9422 153.04 48.7468L154.288 51.7096C154.376 52.0157 154.571 52.2801 154.837 52.4544C155.026 52.5188 155.231 52.5181 155.42 52.4525C155.608 52.3869 155.769 52.2602 155.878 52.0924C156.086 51.7513 156.212 51.3669 156.248 50.9689L156.71 48.1476C156.718 47.9965 156.772 47.8515 156.864 47.7315C157.005 47.6238 157.182 47.5733 157.359 47.59C158.538 47.5567 159.716 47.5456 160.892 47.5567C161.092 46.9284 160.476 46.3458 159.864 46.0836C159.252 45.8215 158.549 45.6217 158.245 45.035C157.634 43.8449 159.223 42.1846 158.545 41.1568C157.767 39.9583 156.481 41.1484 155.453 41.6603Z" fill="#00A66C" fill-opacity="0.63"/>
<path opacity="0.2" d="M257.885 87.5002C257.821 87.5398 257.748 87.5613 257.673 87.5626C257.54 87.5626 257.448 87.4294 257.39 87.3046C257.09 86.6513 257.261 85.8024 256.799 85.249C256.328 85.8166 255.947 86.4539 255.671 87.1382L253.899 86.5889C253.815 86.9324 253.802 87.2892 253.859 87.638C253.916 87.9869 254.043 88.3206 254.232 88.6195C253.921 88.7565 253.639 88.9498 253.399 89.1896C253.28 89.3103 253.197 89.4618 253.158 89.6271C253.12 89.7924 253.129 89.9651 253.183 90.1259C253.591 90.2256 254.011 90.2677 254.431 90.2507C254.367 91.0299 254.412 91.8142 254.564 92.581C254.576 92.6957 254.631 92.8016 254.718 92.8765C254.847 92.9597 255.018 92.8765 255.135 92.8057C255.748 92.4269 256.25 91.8929 256.591 91.2578L257.253 92.8307C257.297 92.9942 257.401 93.1352 257.544 93.226C257.644 93.2606 257.753 93.2606 257.854 93.2259C257.954 93.1912 258.04 93.1238 258.097 93.0346C258.208 92.8544 258.275 92.6505 258.293 92.4396L258.538 90.9373C258.544 90.8611 258.573 90.7884 258.622 90.7293C258.696 90.6711 258.79 90.6442 258.884 90.6544C259.508 90.6336 260.132 90.6294 260.76 90.6336C260.869 90.3007 260.536 89.9928 260.215 89.8513C259.895 89.7098 259.516 89.6058 259.354 89.2978C259.029 88.6612 259.874 87.7831 259.516 87.2172C259.113 86.5972 258.43 87.2297 257.885 87.5002Z" fill="#00A66C" fill-opacity="0.63"/>
<path opacity="0.2" d="M212.025 113.978C211.962 114.017 211.89 114.038 211.817 114.04C211.679 114.04 211.588 113.903 211.529 113.782C211.23 113.125 211.405 112.276 210.939 111.723C210.467 112.29 210.087 112.928 209.811 113.612L208.038 113.063C207.955 113.407 207.941 113.765 207.999 114.114C208.057 114.464 208.185 114.798 208.375 115.097C208.065 115.232 207.783 115.424 207.543 115.663C207.424 115.784 207.341 115.936 207.303 116.101C207.265 116.266 207.273 116.439 207.327 116.6C207.735 116.699 208.155 116.741 208.575 116.724C208.509 117.504 208.554 118.288 208.708 119.055C208.712 119.112 208.727 119.167 208.752 119.218C208.778 119.269 208.814 119.314 208.858 119.35C208.987 119.433 209.158 119.35 209.274 119.279C209.888 118.901 210.392 118.367 210.735 117.731L211.392 119.309C211.439 119.471 211.545 119.61 211.688 119.7C211.787 119.735 211.895 119.736 211.995 119.702C212.095 119.668 212.18 119.601 212.237 119.512C212.347 119.331 212.414 119.125 212.432 118.913L212.682 117.415C212.686 117.338 212.714 117.264 212.761 117.203C212.835 117.145 212.93 117.118 213.023 117.128C213.647 117.128 214.272 117.103 214.9 117.107C215.008 116.774 214.675 116.466 214.355 116.325C214.034 116.183 213.656 116.079 213.498 115.772C213.169 115.135 214.014 114.257 213.656 113.712C213.273 113.075 212.574 113.703 212.025 113.978Z" fill="#00A66C" fill-opacity="0.63"/>
<path opacity="0.5" d="M167.65 21.3119C167.587 21.3508 167.515 21.3723 167.441 21.3744C167.308 21.3744 167.213 21.237 167.158 21.1164C166.855 20.4631 167.03 19.61 166.563 19.0566C166.092 19.6257 165.712 20.2643 165.436 20.9499L163.663 20.4006C163.58 20.7444 163.566 21.1014 163.624 21.4504C163.682 21.7993 163.81 22.133 164 22.4313C163.69 22.5661 163.407 22.7581 163.168 22.9972C163.05 23.1196 162.967 23.2718 162.929 23.4374C162.891 23.6031 162.899 23.776 162.952 23.9377C163.36 24.037 163.78 24.079 164.2 24.0625C164.134 24.8403 164.178 25.6235 164.333 26.3886C164.336 26.4462 164.351 26.5026 164.376 26.5542C164.402 26.6058 164.438 26.6514 164.483 26.6882C164.553 26.7141 164.628 26.7208 164.701 26.7076C164.774 26.6944 164.843 26.6619 164.899 26.6133C165.512 26.235 166.016 25.7028 166.36 25.0695L167.017 26.6425C167.06 26.8134 167.165 26.9621 167.312 27.0586C167.413 27.0925 167.522 27.0921 167.622 27.0574C167.722 27.0228 167.808 26.9559 167.866 26.8672C167.974 26.6841 168.041 26.4796 168.061 26.268L168.332 24.7616C168.338 24.684 168.367 24.61 168.415 24.5494C168.491 24.4938 168.584 24.4672 168.677 24.4745C169.302 24.4745 169.926 24.4745 170.55 24.4745C170.658 24.1416 170.325 23.8336 170.009 23.6922C169.693 23.5507 169.306 23.4467 169.148 23.1346C168.819 22.5021 169.664 21.6199 169.306 21.0748C168.877 20.409 168.199 21.0415 167.65 21.3119Z" fill="#00A66C" fill-opacity="0.63"/>
<path opacity="0.5" d="M191.269 73.531C191.206 73.5699 191.134 73.5914 191.06 73.5934C190.927 73.5934 190.832 73.4561 190.778 73.3354C190.474 72.678 190.649 71.8291 190.182 71.2548C189.71 71.8224 189.331 72.4615 189.059 73.1482L187.282 72.6155C187.2 72.9593 187.187 73.3162 187.245 73.665C187.303 74.0139 187.43 74.3475 187.619 74.6462C187.309 74.7821 187.027 74.9739 186.787 75.2121C186.669 75.3345 186.586 75.4866 186.548 75.6523C186.51 75.818 186.518 75.9909 186.571 76.1526C186.979 76.2519 187.399 76.2939 187.819 76.2774C187.753 77.0552 187.798 77.8384 187.952 78.6035C187.949 78.6726 187.967 78.741 188.005 78.799C188.043 78.857 188.098 78.9016 188.162 78.9265C188.227 78.9514 188.297 78.9553 188.364 78.9377C188.431 78.92 188.491 78.8817 188.535 78.8282C189.148 78.4499 189.651 77.9177 189.995 77.2844L190.653 78.8574C190.702 79.0193 190.807 79.1591 190.948 79.2527C191.049 79.2866 191.157 79.2861 191.258 79.2515C191.358 79.2169 191.444 79.1499 191.502 79.0612C191.613 78.8798 191.68 78.6745 191.697 78.462L191.943 76.964C191.948 76.8865 191.977 76.8124 192.026 76.7518C192.101 76.6951 192.194 76.6684 192.288 76.6769C192.912 76.6769 193.536 76.6519 194.165 76.6769C194.269 76.344 193.94 76.0361 193.62 75.8946C193.299 75.7531 192.921 75.6491 192.758 75.337C192.434 74.7045 193.274 73.8223 192.916 73.2772C192.5 72.6155 191.818 73.2605 191.269 73.531Z" fill="#00A66C" fill-opacity="0.63"/>
<path opacity="0.5" d="M174.129 53.1743C174.066 53.2132 173.994 53.2347 173.921 53.2367C173.783 53.2367 173.692 53.0994 173.633 52.9788C173.334 52.3213 173.509 51.4724 173.043 50.9189C172.57 51.4873 172.189 52.1262 171.915 52.8123L170.142 52.263C170.059 52.6066 170.046 52.9633 170.103 53.3121C170.16 53.6609 170.287 53.9947 170.475 54.2937C170.165 54.4291 169.883 54.621 169.643 54.8596C169.524 54.9812 169.44 55.1334 169.402 55.2993C169.364 55.4653 169.372 55.6386 169.426 55.8001C169.835 55.8994 170.255 55.9414 170.675 55.9249C170.609 56.7027 170.654 57.4859 170.808 58.251C170.802 58.3213 170.818 58.3918 170.855 58.4518C170.893 58.5118 170.948 58.558 171.014 58.5834C171.08 58.6088 171.153 58.612 171.22 58.5926C171.288 58.5732 171.348 58.5321 171.39 58.4757C172.003 58.0984 172.506 57.5658 172.847 56.9319L173.509 58.5048C173.553 58.6751 173.658 58.8233 173.804 58.921C173.904 58.9546 174.012 58.954 174.111 58.9193C174.211 58.8847 174.296 58.8179 174.353 58.7296C174.465 58.5481 174.532 58.3428 174.549 58.1303L174.799 56.6323C174.803 56.5551 174.83 56.4811 174.878 56.4201C174.953 56.3638 175.046 56.3371 175.14 56.3452C175.764 56.3452 176.388 56.3202 177.016 56.3452C177.125 56.0123 176.792 55.7043 176.471 55.5629C176.151 55.4214 175.772 55.3174 175.614 55.0053C175.285 54.3728 176.13 53.4906 175.772 52.9455C175.356 52.2714 174.674 52.9038 174.129 53.1743Z" fill="#00A66C" fill-opacity="0.63"/>
<path opacity="0.5" d="M247.753 57.9681C247.69 58.0069 247.618 58.0285 247.545 58.0305C247.411 58.0305 247.32 57.8932 247.262 57.7725C246.958 57.115 247.133 56.2661 246.671 55.7127C246.197 56.2802 245.816 56.9192 245.543 57.6061L243.77 57.0568C243.687 57.4003 243.674 57.757 243.731 58.1058C243.788 58.4547 243.915 58.7884 244.103 59.0874C243.793 59.2233 243.511 59.4152 243.271 59.6534C243.153 59.776 243.071 59.9281 243.033 60.0937C242.995 60.2593 243.002 60.4321 243.055 60.5938C243.463 60.6909 243.883 60.7329 244.303 60.7186C244.237 61.4964 244.282 62.2796 244.436 63.0448C244.431 63.1149 244.449 63.1846 244.487 63.2438C244.525 63.303 244.581 63.3485 244.647 63.3737C244.712 63.3988 244.784 63.4022 244.852 63.3835C244.92 63.3647 244.98 63.3248 245.023 63.2695C245.635 62.8911 246.137 62.3587 246.479 61.7257L247.141 63.2986C247.188 63.4609 247.291 63.6011 247.432 63.6939C247.533 63.7278 247.641 63.7274 247.742 63.6927C247.842 63.6581 247.928 63.5912 247.986 63.5025C248.097 63.3208 248.164 63.1156 248.181 62.9033L248.427 61.4052C248.432 61.3277 248.461 61.2537 248.51 61.193C248.585 61.1364 248.678 61.1097 248.772 61.1181C249.396 61.1181 250.02 61.0932 250.649 61.0973C250.753 60.7686 250.424 60.4565 250.104 60.3192C249.783 60.1819 249.405 60.0737 249.242 59.7616C248.918 59.1291 249.762 58.2469 249.4 57.7018C248.984 57.0651 248.302 57.6976 247.753 57.9681Z" fill="#00A66C" fill-opacity="0.63"/>
<path opacity="0.2" d="M212.025 53.9608C211.962 53.9997 211.89 54.0212 211.817 54.0232C211.679 54.0232 211.588 53.8901 211.529 53.7652C211.23 53.1119 211.405 52.263 210.939 51.7096C210.467 52.2772 210.087 52.9145 209.811 53.5988L208.042 53.0578C207.959 53.4015 207.945 53.7586 208.003 54.1076C208.061 54.4566 208.189 54.7903 208.379 55.0885C208.069 55.2248 207.786 55.4182 207.547 55.6586C207.428 55.7793 207.344 55.9307 207.306 56.0961C207.268 56.2614 207.276 56.4341 207.331 56.5949C207.739 56.6942 208.159 56.7362 208.579 56.7197C208.513 57.4988 208.558 58.2834 208.712 59.05C208.716 59.1068 208.731 59.1624 208.757 59.2132C208.782 59.2641 208.818 59.309 208.862 59.3454C208.991 59.4286 209.162 59.3454 209.278 59.2747C209.906 58.8968 210.423 58.36 210.776 57.7184L211.434 59.2913C211.481 59.4546 211.586 59.5952 211.729 59.6866C211.829 59.721 211.937 59.7208 212.037 59.686C212.137 59.6513 212.222 59.5841 212.278 59.4952C212.38 59.3071 212.436 59.0974 212.441 58.8835L212.69 57.3813C212.694 57.3055 212.722 57.2327 212.769 57.1733C212.844 57.1158 212.937 57.0877 213.032 57.0942C213.656 57.0942 214.28 57.0734 214.908 57.0942C215.016 56.7613 214.684 56.4534 214.363 56.3119C214.043 56.1704 213.664 56.0664 213.506 55.7584C213.177 55.1218 214.022 54.2438 213.664 53.6778C213.273 53.0578 212.574 53.6903 212.025 53.9608Z" fill="#00A66C" fill-opacity="0.63"/>
<path opacity="0.3" d="M200.818 58.8378C200.755 58.8773 200.681 58.8989 200.606 58.9002C200.473 58.9002 200.382 58.767 200.323 58.6422C200.024 57.9889 200.194 57.14 199.732 56.5865C199.261 57.1542 198.881 57.7915 198.605 58.4757L196.832 57.9265C196.749 58.27 196.735 58.6267 196.792 58.9756C196.85 59.3244 196.976 59.6582 197.165 59.9571C196.855 60.094 196.572 60.2874 196.333 60.5272C196.214 60.6482 196.13 60.7995 196.092 60.9645C196.053 61.1296 196.06 61.3022 196.112 61.4635C196.52 61.5626 196.941 61.6046 197.36 61.5883C197.296 62.3675 197.341 63.1518 197.494 63.9186C197.505 64.0333 197.56 64.1392 197.648 64.214C197.777 64.2973 197.947 64.2141 198.064 64.1433C198.677 63.7645 199.179 63.2305 199.52 62.5953L200.182 64.1683C200.226 64.3318 200.33 64.4728 200.473 64.5636C200.573 64.599 200.683 64.5993 200.783 64.5646C200.884 64.5298 200.97 64.462 201.027 64.3722C201.138 64.192 201.205 63.9881 201.222 63.7771L201.468 62.2791C201.472 62.2014 201.501 62.1271 201.551 62.0669C201.625 62.0087 201.719 61.9818 201.813 61.992C202.437 61.9712 203.061 61.967 203.69 61.9712C203.798 61.6383 203.465 61.3303 203.145 61.1888C202.824 61.0474 202.445 60.9433 202.283 60.6354C201.959 59.9987 202.803 59.1207 202.445 58.5548C202.038 57.9348 201.364 58.5673 200.818 58.8378Z" fill="#00A66C" fill-opacity="0.63"/>
<path opacity="0.2" d="M190.386 29.3389C190.324 29.3778 190.252 29.3993 190.178 29.4013C190.045 29.4013 189.954 29.2682 189.895 29.1433C189.591 28.49 189.766 27.637 189.304 27.0877C188.832 27.6543 188.451 28.2918 188.177 28.9769L186.404 28.4276C186.321 28.7712 186.307 29.1279 186.365 29.4767C186.422 29.8255 186.548 30.1593 186.737 30.4583C186.426 30.5927 186.144 30.7847 185.905 31.0242C185.786 31.1461 185.703 31.2981 185.664 31.4638C185.625 31.6295 185.632 31.8027 185.684 31.9647C186.092 32.0638 186.513 32.1058 186.932 32.0895C186.866 32.8672 186.911 33.6505 187.066 34.4156C187.077 34.5314 187.132 34.6386 187.22 34.7152C187.349 34.7984 187.519 34.7152 187.636 34.6403C188.249 34.263 188.751 33.7304 189.092 33.0965L189.754 34.6694C189.795 34.8399 189.899 34.9886 190.045 35.0856C190.145 35.1202 190.255 35.1201 190.355 35.0854C190.455 35.0507 190.541 34.9834 190.599 34.8941C190.71 34.714 190.777 34.5101 190.794 34.2991L191.04 32.7969C191.045 32.7193 191.074 32.6453 191.123 32.5847C191.199 32.531 191.292 32.5046 191.385 32.5098C192.009 32.5098 192.633 32.5098 193.262 32.5098C193.366 32.1769 193.037 31.8689 192.717 31.7275C192.396 31.586 192.017 31.4819 191.855 31.1699C191.531 30.5374 192.375 29.6552 192.013 29.1101C191.597 28.4193 190.915 29.0518 190.386 29.3389Z" fill="#00A66C" fill-opacity="0.63"/>
<path opacity="0.3" d="M210.951 67.8385C210.888 67.8774 210.817 67.8989 210.743 67.9009C210.677 67.8874 210.616 67.8562 210.566 67.8108C210.516 67.7654 210.479 67.7074 210.46 67.6429C210.156 66.9896 210.331 66.1366 209.865 65.5873C209.393 66.1549 209.013 66.7922 208.737 67.4765L206.965 66.9272C206.882 67.271 206.869 67.6279 206.927 67.9767C206.985 68.3255 207.112 68.6592 207.302 68.9579C206.992 69.0942 206.71 69.286 206.469 69.5238C206.351 69.6461 206.269 69.7983 206.231 69.964C206.193 70.1297 206.2 70.3026 206.253 70.4642C206.661 70.5636 207.081 70.6056 207.501 70.5891C207.435 71.3668 207.48 72.1501 207.634 72.9152C207.637 72.9728 207.652 73.0292 207.678 73.0807C207.704 73.1323 207.74 73.178 207.784 73.2148C207.854 73.2412 207.929 73.2485 208.002 73.2361C208.075 73.2237 208.144 73.1919 208.2 73.144C208.813 72.7634 209.317 72.2299 209.661 71.5961L210.318 73.169C210.366 73.3323 210.471 73.4729 210.614 73.5643C210.714 73.599 210.823 73.5989 210.924 73.5642C211.024 73.5295 211.11 73.4622 211.167 73.3729C211.275 73.1911 211.342 72.9881 211.363 72.7779L211.608 71.2757C211.607 71.2323 211.615 71.1891 211.633 71.1494C211.65 71.1097 211.677 71.0747 211.71 71.0469C211.744 71.0191 211.783 70.9994 211.825 70.9893C211.867 70.9792 211.911 70.9789 211.954 70.9885C212.578 70.9885 213.202 70.9885 213.826 70.9885C213.935 70.6556 213.602 70.3477 213.285 70.2062C212.969 70.0647 212.582 69.9607 212.424 69.6486C212.099 69.0161 212.94 68.134 212.582 67.5888C212.178 66.9355 211.5 67.568 210.951 67.8385Z" fill="#00A66C" fill-opacity="0.63"/>
<defs>
<linearGradient id="paint0_linear" x1="84.8754" y1="287.165" x2="84.8754" y2="26.2302" gradientUnits="userSpaceOnUse">
<stop stop-color="#808080" stop-opacity="0.25"/>
<stop offset="0.54" stop-color="#808080" stop-opacity="0.12"/>
<stop offset="1" stop-color="#808080" stop-opacity="0.1"/>
</linearGradient>
</defs>
</svg>
