<svg width="196" height="187" viewBox="0 0 196 187" fill="none" xmlns="http://www.w3.org/2000/svg">
<path opacity="0.5" d="M73.8616 27.1992C71.4076 23.8618 66.3342 27.4814 68.6286 30.9353C69.2421 31.8371 69.8862 32.7144 70.5058 33.5487C78.0639 43.7509 81.9779 56.1371 85.352 68.3761C86.1741 71.3822 86.9778 74.5907 86.033 77.5783C87.3827 69.6031 86.5053 61.4131 84.4686 53.6035C82.4318 45.7938 79.2602 38.3339 75.9842 30.966C75.4127 29.6384 74.7011 28.3757 73.8616 27.1992Z" fill="#00A66C" fill-opacity="0.63"/>
<path d="M24.8259 48.6526C19.7279 48.4993 19.0837 56.2291 24.1572 56.6279C25.4884 56.7322 26.8319 56.7629 28.108 56.7997C43.7149 57.223 58.4752 62.8854 72.6527 68.9712C76.1373 70.4619 79.7875 72.1367 81.8549 75.333C75.4625 67.9221 67.0455 62.4928 58.0887 58.499C49.1319 54.5053 39.5984 51.8918 30.065 49.444C28.3527 48.9898 26.5959 48.7244 24.8259 48.6526V48.6526Z" fill="#00A66C" fill-opacity="0.63"/>
<path opacity="0.2" d="M26.2492 67.6521C23.0346 67.7748 23.7584 72.3452 26.9976 72.3759C27.8442 72.3759 28.6908 72.3452 29.5006 72.3084C39.3163 71.9097 49.4264 74.6274 59.2053 77.6151C61.604 78.3451 64.1438 79.1794 65.8861 80.9769C60.7942 76.885 54.7208 74.0384 48.5246 72.063C42.3285 70.0876 35.9667 68.9466 29.6295 67.9098C28.5138 67.7136 27.3817 67.6273 26.2492 67.6521Z" fill="#00A66C" fill-opacity="0.63"/>
<path opacity="0.5" d="M92.1186 152.687C93.0327 155.754 97.278 153.914 96.505 150.791C96.3026 149.969 96.051 149.159 95.8179 148.386C92.9898 138.945 93.1248 128.509 93.591 118.295C93.7014 115.786 93.8793 113.123 95.186 110.988C92.4867 116.939 91.2352 123.522 90.861 130.006C90.4868 136.491 90.9592 142.945 91.5236 149.337C91.6106 150.471 91.8099 151.593 92.1186 152.687V152.687Z" fill="#00A66C" fill-opacity="0.63"/>
<path opacity="0.2" d="M32.1143 22.9109C30.1757 22.5735 30.0284 25.3955 31.9609 25.8249C32.4701 25.9353 32.9793 26.0212 33.4639 26.1071C39.3963 27.1194 45.0709 30.0211 50.5309 33.0456C51.8744 33.7879 53.2793 34.61 54.0952 35.9044C51.5041 32.849 48.3722 30.2973 44.8562 28.377C41.3971 26.4786 37.8026 24.8382 34.1019 23.4691C33.4601 23.2158 32.7941 23.0288 32.1143 22.9109V22.9109Z" fill="#00A66C" fill-opacity="0.63"/>
<path d="M2.20091 97.7065C-2.70692 100.24 1.4402 107.185 6.49527 104.878C7.81425 104.265 9.10869 103.602 10.3357 102.958C25.3598 95.1667 42.8132 92.3017 59.9722 90.0748C64.1868 89.5349 68.6775 89.0625 72.5731 90.7312C61.9538 87.7313 50.6474 87.4859 39.7152 88.7558C28.783 90.0257 18.1514 92.768 7.62408 95.6575C5.75196 96.1561 3.935 96.8426 2.20091 97.7065V97.7065Z" fill="#00A66C" fill-opacity="0.63"/>
<path opacity="0.5" d="M16.2373 124.743C12.7036 128.037 18.2188 131.933 21.9242 128.767C22.8935 127.939 23.8199 127.062 24.7033 126.233C35.4698 116.129 49.6964 108.933 63.8617 102.308C67.3401 100.682 81.6526 99.0194 85.4684 99.1114C75.4932 100.001 55.1073 103.117 46.0462 107.24C36.9852 111.363 28.5927 116.473 20.3292 121.669C18.8727 122.564 17.5029 123.593 16.2373 124.743V124.743Z" fill="#00A66C" fill-opacity="0.63"/>
<path d="M41.4451 167.901C40.4145 172.613 47.1628 172.68 48.4143 167.969C48.7394 166.742 49.0277 165.515 49.2547 164.288C52.3712 149.877 59.9845 135.89 67.8738 122.393C69.8063 119.08 80.6403 109.577 83.8243 107.479C76.119 113.89 61.1256 128.043 56.0091 136.583C50.8927 145.122 46.9112 154.067 43.0647 163.036C42.3778 164.605 41.8357 166.233 41.4451 167.901V167.901Z" fill="#00A66C" fill-opacity="0.63"/>
<path d="M92.1737 2.2243C89.7689 -2.68355 82.8918 1.35316 85.0757 6.38371C85.6463 7.70269 86.3027 8.991 86.9162 10.218C94.327 25.2053 96.8729 42.5423 98.7747 59.5787C99.2471 63.7626 99.6397 68.2165 97.9465 72.0631C101.051 61.5725 101.462 50.3642 100.4 39.5485C99.3391 28.7328 96.7932 18.1196 94.1184 7.64749C93.654 5.77903 93.0024 3.96212 92.1737 2.2243V2.2243Z" fill="#00A66C" fill-opacity="0.63"/>
<path d="M53.8436 10.5737C53.9707 10.6475 54.1138 10.6896 54.2607 10.6964C54.5245 10.6964 54.7147 10.4265 54.8252 10.1811C55.4387 8.88048 55.0828 7.18727 56.003 6.08301C56.9432 7.21391 57.7008 8.48485 58.2484 9.84979L61.782 8.75779C61.9479 9.44202 61.9742 10.1527 61.8593 10.8473C61.7444 11.5419 61.4907 12.2063 61.1133 12.8006C61.7326 13.0708 62.2963 13.4535 62.7758 13.9294C63.0137 14.171 63.1803 14.4735 63.2571 14.8037C63.334 15.1338 63.3182 15.4788 63.2114 15.8006C62.3947 15.9986 61.5542 16.0812 60.7146 16.0459C60.8481 17.5966 60.7593 19.1584 60.4508 20.6839C60.4449 20.8012 60.4153 20.9161 60.3636 21.0216C60.3119 21.127 60.2393 21.2209 60.1502 21.2973C60.0063 21.3542 59.8496 21.3705 59.6971 21.3445C59.5446 21.3186 59.4021 21.2513 59.2851 21.1501C58.0662 20.3991 57.0657 19.3414 56.3834 18.0827L55.0705 21.1685C54.9731 21.4987 54.7538 21.7794 54.4571 21.9538C54.2587 22.0246 54.0421 22.0262 53.8427 21.9582C53.6433 21.8903 53.4728 21.7568 53.359 21.5796C53.1422 21.2165 53.0082 20.8102 52.9663 20.3894L52.4755 17.4017C52.4685 17.2473 52.4127 17.0991 52.316 16.9784C52.167 16.8883 51.9918 16.8515 51.8191 16.8741C50.5922 16.8373 49.3468 16.8251 48.083 16.8373C47.8683 16.1748 48.5309 15.5552 49.1627 15.2791C49.7946 15.003 50.5615 14.7883 50.8805 14.1687C51.5308 12.9111 49.8437 11.1565 50.5615 10.0645C51.3958 8.77619 52.7577 10.0338 53.8436 10.5737Z" fill="#00A66C" fill-opacity="0.63"/>
<path opacity="0.5" d="M121.989 27.1992C124.443 23.8618 129.522 27.4814 127.228 30.9353C126.614 31.8371 126.001 32.7144 125.351 33.5487C117.793 43.7509 113.879 56.1371 110.504 68.3761C109.682 71.3822 108.879 74.5907 109.824 77.5783C108.474 69.6031 109.351 61.4131 111.388 53.6035C113.425 45.7938 116.596 38.3339 119.872 30.966C120.444 29.6398 121.153 28.3773 121.989 27.1992V27.1992Z" fill="#00A66C" fill-opacity="0.63"/>
<path d="M171.012 48.6526C176.11 48.4993 176.754 56.2291 171.681 56.6279C170.349 56.7322 169.006 56.7629 167.73 56.7997C152.123 57.223 137.363 62.8854 123.185 68.9712C119.701 70.4619 116.05 72.1367 113.983 75.333C120.375 67.9221 128.792 62.4928 137.749 58.499C146.706 54.5053 156.233 51.8918 165.773 49.444C167.485 48.9898 169.242 48.7244 171.012 48.6526V48.6526Z" fill="#00A66C" fill-opacity="0.63"/>
<path opacity="0.5" d="M169.607 67.6522C172.822 67.7749 172.098 72.3453 168.859 72.376C168.012 72.376 167.165 72.3453 166.356 72.3085C156.509 71.9097 146.43 74.6275 136.651 77.6151C134.252 78.3452 131.743 79.1795 129.97 80.977C135.062 76.8851 141.129 74.0385 147.332 72.0631C153.534 70.0877 159.89 68.9466 166.227 67.9098C167.342 67.7135 168.475 67.6271 169.607 67.6522V67.6522Z" fill="#00A66C" fill-opacity="0.63"/>
<path opacity="0.2" d="M163.742 22.9109C165.681 22.5735 165.828 25.3955 163.896 25.8249C163.386 25.9353 162.877 26.0212 162.393 26.1071C156.46 27.1194 150.786 30.0211 145.326 33.0456C143.982 33.7879 142.577 34.61 141.761 35.9044C144.352 32.849 147.484 30.2973 151 28.377C154.459 26.4786 158.054 24.8382 161.755 23.4691C162.396 23.2158 163.062 23.0288 163.742 22.9109V22.9109Z" fill="#00A66C" fill-opacity="0.63"/>
<path opacity="0.2" d="M113.302 158.545C112.866 160.46 110.204 159.509 110.554 157.558C110.646 157.049 110.762 156.546 110.873 156.067C112.228 150.202 111.738 143.846 111.051 137.663C110.879 136.135 110.67 134.522 109.787 133.27C111.602 136.835 112.748 140.702 113.167 144.681C113.573 148.601 113.692 152.546 113.523 156.484C113.517 157.177 113.443 157.867 113.302 158.545V158.545Z" fill="#00A66C" fill-opacity="0.63"/>
<path opacity="0.5" d="M162.497 145.791C164.012 148.356 160.295 148.184 158.663 145.613C158.233 144.945 157.841 144.27 157.466 143.626C152.853 135.785 145.81 128.031 138.78 120.54C137.05 118.7 135.173 116.767 132.989 115.541C138.511 119.3 143.603 123.655 148.172 128.528C152.706 133.27 156.712 138.209 160.632 143.141C161.313 143.981 161.936 144.867 162.497 145.791V145.791Z" fill="#00A66C" fill-opacity="0.63"/>
<path opacity="0.2" d="M27.8933 145.791C26.378 148.356 30.0957 148.184 31.7337 145.613C32.157 144.945 32.5496 144.27 32.9299 143.626C37.5372 135.785 44.5492 128.031 51.6165 120.54C53.3465 118.7 55.2238 116.767 57.4077 115.541C51.8791 119.299 46.781 123.654 42.2057 128.528C37.6721 133.27 33.6661 138.209 29.746 143.141C29.0696 143.982 28.4506 144.867 27.8933 145.791Z" fill="#00A66C" fill-opacity="0.63"/>
<path opacity="0.2" d="M77.1067 158.545C77.5422 160.46 80.1741 159.509 79.8551 157.558C79.7631 157.049 79.6465 156.546 79.5361 156.067C78.1803 150.202 78.6711 143.846 79.3582 137.663C79.5299 136.135 79.7385 134.522 80.6219 133.27C78.8021 136.84 77.6542 140.714 77.2355 144.699C76.8293 148.62 76.7103 152.565 76.8797 156.503C76.889 157.189 76.9651 157.873 77.1067 158.545V158.545Z" fill="#00A66C" fill-opacity="0.63"/>
<path opacity="0.2" d="M148.233 42.1681C150.166 41.8307 150.313 44.6589 148.381 45.0822C147.878 45.1987 147.368 45.2785 146.884 45.3644C140.951 46.3766 135.277 49.2784 129.811 52.3029C128.473 53.0513 127.062 53.8672 126.252 55.1617C128.835 52.1125 131.954 49.5614 135.455 47.6343C138.918 45.7408 142.515 44.1006 146.215 42.7264C146.869 42.4768 147.544 42.2899 148.233 42.1681V42.1681Z" fill="#00A66C" fill-opacity="0.63"/>
<path opacity="0.2" d="M130.136 4.35925C131.811 3.32247 133.001 5.88682 131.363 7.00336C130.933 7.29783 130.492 7.56776 130.074 7.82542C124.952 10.9787 120.774 15.8007 116.836 20.6411C115.872 21.8312 114.872 23.095 114.603 24.6226C115.862 20.8229 117.811 17.2876 120.351 14.1934C122.858 11.149 125.583 8.29087 128.504 5.64143C129.006 5.16314 129.552 4.73381 130.136 4.35925V4.35925Z" fill="#00A66C" fill-opacity="0.63"/>
<path d="M193.655 97.7065C198.563 100.24 194.416 107.185 189.361 104.878C188.036 104.265 186.748 103.602 185.515 102.958C170.497 95.1667 153.043 92.3017 135.878 90.0748C131.669 89.5349 127.179 89.0625 123.283 90.7312C133.903 87.7313 145.209 87.4859 156.141 88.7558C167.073 90.0257 177.705 92.768 188.232 95.6575C190.104 96.1561 191.921 96.8426 193.655 97.7065V97.7065Z" fill="#00A66C" fill-opacity="0.63"/>
<path opacity="0.5" d="M179.613 124.743C183.147 128.037 177.631 131.933 173.926 128.767C172.95 127.939 172.03 127.062 171.147 126.233C160.38 116.129 146.154 108.933 131.988 102.308C128.51 100.682 114.198 99.0194 110.376 99.1114C120.357 100.001 140.743 103.117 149.804 107.24C158.865 111.363 167.257 116.473 175.515 121.669C176.974 122.563 178.346 123.592 179.613 124.743V124.743Z" fill="#00A66C" fill-opacity="0.63"/>
<path d="M137.988 173.312C138.424 178.122 131.712 177.343 131.062 172.514C130.897 171.251 130.792 169.987 130.688 168.778C129.406 154.055 123.602 139.215 117.467 124.829C115.964 121.301 106.425 110.516 103.499 108.031C110.339 115.356 123.449 131.276 127.424 140.386C131.4 149.497 134.271 158.907 136.964 168.288C137.459 169.927 137.802 171.609 137.988 173.312V173.312Z" fill="#00A66C" fill-opacity="0.63"/>
<path d="M142.001 10.5737C141.873 10.6475 141.73 10.6896 141.583 10.6964C141.32 10.6964 141.129 10.4265 141.019 10.1811C140.406 8.88048 140.761 7.18727 139.841 6.08301C138.901 7.21391 138.143 8.48485 137.596 9.84979L134.062 8.75779C133.896 9.44202 133.87 10.1527 133.985 10.8473C134.1 11.5419 134.353 12.2063 134.731 12.8006C134.112 13.0708 133.548 13.4535 133.068 13.9294C132.83 14.171 132.664 14.4735 132.587 14.8037C132.51 15.1338 132.526 15.4788 132.633 15.8006C133.449 15.9986 134.29 16.0812 135.13 16.0459C134.996 17.5966 135.085 19.1584 135.393 20.6839C135.399 20.8012 135.429 20.9161 135.481 21.0216C135.532 21.127 135.605 21.2209 135.694 21.2973C135.838 21.3542 135.995 21.3705 136.147 21.3445C136.3 21.3186 136.442 21.2513 136.559 21.1501C137.778 20.3991 138.778 19.3414 139.461 18.0827L140.774 21.1685C140.871 21.4987 141.09 21.7794 141.387 21.9538C141.585 22.0246 141.802 22.0262 142.001 21.9582C142.201 21.8903 142.371 21.7568 142.485 21.5796C142.703 21.2174 142.835 20.8103 142.872 20.3894L143.362 17.4017C143.375 17.2474 143.432 17.1001 143.528 16.9784C143.678 16.8675 143.864 16.8152 144.05 16.8312C145.277 16.7944 146.522 16.7821 147.786 16.7944C148 16.1318 147.338 15.5122 146.706 15.2362C146.074 14.9601 145.307 14.7454 144.988 14.1258C144.338 12.8681 146.019 11.1136 145.307 10.0216C144.454 8.77619 143.099 10.0338 142.001 10.5737Z" fill="#00A66C" fill-opacity="0.63"/>
<path opacity="0.2" d="M152.663 155.969C152.538 156.048 152.393 156.091 152.246 156.092C151.982 156.092 151.792 155.828 151.681 155.582C151.068 154.276 151.424 152.583 150.503 151.484C149.562 152.612 148.804 153.881 148.258 155.245L144.724 154.153C144.559 154.838 144.532 155.55 144.647 156.245C144.762 156.941 145.016 157.606 145.393 158.202C144.773 158.47 144.208 158.853 143.73 159.331C143.498 159.569 143.335 159.867 143.258 160.191C143.182 160.515 143.194 160.854 143.295 161.171C144.111 161.371 144.952 161.456 145.792 161.423C145.658 162.973 145.747 164.535 146.056 166.061C146.048 166.199 146.085 166.336 146.16 166.453C146.236 166.569 146.346 166.658 146.476 166.708C146.605 166.758 146.747 166.765 146.881 166.729C147.015 166.694 147.134 166.616 147.221 166.509C148.44 165.757 149.441 164.7 150.123 163.441L151.436 166.576C151.535 166.905 151.754 167.185 152.049 167.361C152.248 167.43 152.465 167.43 152.664 167.361C152.863 167.292 153.034 167.158 153.147 166.981C153.366 166.619 153.498 166.212 153.534 165.791L154.025 162.803C154.037 162.651 154.094 162.505 154.19 162.386C154.338 162.271 154.525 162.216 154.712 162.233C155.939 162.204 157.184 162.192 158.448 162.196C158.663 161.533 158 160.92 157.368 160.638C156.736 160.355 155.969 160.153 155.65 159.533C155 158.269 156.681 156.515 155.969 155.429C155.111 154.171 153.749 155.429 152.663 155.969Z" fill="#00A66C" fill-opacity="0.63"/>
<path d="M182.582 58.5112C182.455 58.5842 182.312 58.6262 182.165 58.6339C181.895 58.6339 181.711 58.364 181.601 58.1186C180.987 56.8119 181.343 55.1186 180.416 54.0205C179.476 55.1514 178.719 56.4224 178.171 57.7873L174.644 56.6892C174.478 57.3744 174.451 58.086 174.566 58.7817C174.681 59.4773 174.935 60.1427 175.312 60.7381C174.692 61.0068 174.128 61.3897 173.65 61.8669C173.412 62.1085 173.245 62.411 173.169 62.7412C173.092 63.0713 173.107 63.4163 173.214 63.7381C174.031 63.9361 174.871 64.0187 175.711 63.9835C175.578 65.5341 175.667 67.0959 175.975 68.6214C175.979 68.7391 176.008 68.8546 176.06 68.9603C176.111 69.066 176.185 69.1596 176.276 69.2349C176.533 69.4005 176.889 69.2349 177.141 69.0938C178.359 68.3427 179.36 67.285 180.042 66.0264L181.355 69.1613C181.448 69.4848 181.655 69.7638 181.938 69.9465C182.138 70.0161 182.356 70.0164 182.556 69.9474C182.756 69.8784 182.927 69.7442 183.042 69.5662C183.261 69.2047 183.394 68.7973 183.429 68.376L183.919 65.3945C183.929 65.2394 183.987 65.0913 184.085 64.9712C184.234 64.8576 184.42 64.803 184.607 64.8178C185.833 64.7892 187.079 64.7769 188.343 64.781C188.557 64.1184 187.895 63.5049 187.257 63.2289C186.619 62.9528 185.864 62.7381 185.545 62.1185C184.895 60.8547 186.576 59.1001 185.864 58.0143C185.03 56.7076 183.668 57.9775 182.582 58.5112Z" fill="#00A66C" fill-opacity="0.63"/>
<path d="M62.9661 170.551C62.7922 170.658 62.5933 170.717 62.3894 170.723C62.0152 170.723 61.7759 170.349 61.598 170.012C60.7637 168.171 61.2422 165.834 59.9539 164.3C58.6445 165.875 57.5888 167.645 56.8251 169.545L51.9173 168.024C51.6854 168.977 51.6485 169.967 51.8087 170.935C51.9689 171.903 52.3231 172.828 52.8498 173.656C51.9846 174.031 51.1979 174.566 50.5309 175.232C50.1976 175.568 49.9639 175.989 49.8556 176.449C49.7473 176.909 49.7687 177.391 49.9174 177.84C51.053 178.116 52.2218 178.232 53.3897 178.183C53.208 180.345 53.3319 182.522 53.7577 184.649C53.7862 184.968 53.9381 185.263 54.181 185.471C54.543 185.698 55.0154 185.471 55.408 185.269C57.1093 184.215 58.5052 182.735 59.457 180.974L61.2974 185.342C61.4256 185.795 61.7162 186.183 62.1133 186.434C62.3912 186.53 62.693 186.53 62.9708 186.434C63.2487 186.339 63.4867 186.153 63.647 185.907C63.9527 185.404 64.1375 184.837 64.1869 184.25L64.874 180.091C64.8773 179.867 64.9574 179.65 65.101 179.478C65.307 179.319 65.5659 179.244 65.8249 179.269C67.5631 179.22 69.2992 179.202 71.0333 179.214C71.3339 178.294 70.4198 177.435 69.5241 177.048C68.6285 176.662 67.5794 176.361 67.1377 175.502C66.2298 173.742 68.5733 171.3 67.5794 169.785C66.377 168.048 64.4813 169.803 62.9661 170.551Z" fill="#00A66C" fill-opacity="0.63"/>
<path d="M13.2006 61.4192C13.0245 61.526 12.8237 61.5852 12.6178 61.591C12.2497 61.591 12.0043 61.2168 11.8326 60.8733C10.9921 59.0328 11.4768 56.6954 10.1885 55.1617C8.86816 56.7426 7.80411 58.5208 7.03516 60.4315L2.12733 58.9101C1.89579 59.864 1.85847 60.8546 2.01762 61.8232C2.17676 62.7917 2.52911 63.7184 3.05369 64.548C2.19117 64.9247 1.40672 65.4595 0.740857 66.1247C0.409356 66.4599 0.176709 66.8801 0.0684785 67.339C-0.0397516 67.7979 -0.0193747 68.2777 0.127378 68.7258C1.26535 69.0013 2.43577 69.1189 3.60579 69.0755C3.42123 71.2354 3.54519 73.4105 3.9739 75.5355C3.98571 75.6939 4.02928 75.8483 4.102 75.9895C4.17472 76.1308 4.27511 76.2559 4.39721 76.3575C4.75916 76.5907 5.23155 76.3575 5.5935 76.1612C7.29696 75.1103 8.69347 73.6291 9.64245 71.8669L11.4829 76.2348C11.6123 76.6862 11.8998 77.0759 12.2927 77.333C12.5712 77.4278 12.8735 77.4268 13.1514 77.3301C13.4293 77.2334 13.6669 77.0465 13.8264 76.7992C14.133 76.2963 14.3198 75.7295 14.3724 75.1428L15.0533 70.9834C15.0653 70.7607 15.1444 70.5468 15.2803 70.37C15.4888 70.2112 15.7495 70.1367 16.0104 70.1614C17.7486 70.1123 19.4847 70.0959 21.2188 70.1123C21.5133 69.1859 20.6053 68.3271 19.7035 67.9406C18.8017 67.5541 17.7649 67.2596 17.3171 66.3946C16.4153 64.64 18.7587 62.1922 17.7588 60.6769C16.6116 58.9101 14.7159 60.6647 13.2006 61.4192Z" fill="#00A66C" fill-opacity="0.63"/>
<path opacity="0.2" d="M164.215 129C164.12 129.059 164.012 129.09 163.902 129.092C163.705 129.092 163.57 128.896 163.485 128.712C163.043 127.749 163.294 126.497 162.613 125.681C161.918 126.518 161.358 127.458 160.951 128.467L158.337 127.657C158.215 128.163 158.195 128.689 158.279 129.204C158.363 129.718 158.55 130.21 158.828 130.651C158.371 130.852 157.955 131.137 157.601 131.491C157.425 131.669 157.302 131.892 157.246 132.136C157.19 132.38 157.202 132.634 157.282 132.871C157.884 133.018 158.504 133.08 159.123 133.055C159.028 134.204 159.094 135.36 159.319 136.491C159.335 136.66 159.417 136.816 159.546 136.927C159.736 137.049 159.988 136.927 160.159 136.822C161.064 136.264 161.804 135.477 162.307 134.54L163.282 136.859C163.347 137.1 163.501 137.308 163.712 137.442C163.859 137.493 164.02 137.493 164.168 137.442C164.316 137.391 164.443 137.291 164.527 137.16C164.691 136.894 164.79 136.593 164.816 136.282L165.178 134.068C165.186 133.955 165.229 133.848 165.3 133.761C165.41 133.675 165.549 133.636 165.687 133.651C166.607 133.62 167.527 133.614 168.454 133.62C168.613 133.129 168.122 132.675 167.65 132.467C167.178 132.258 166.619 132.105 166.38 131.651C165.902 130.712 167.147 129.418 166.619 128.583C166.024 127.669 165.018 128.602 164.215 129Z" fill="#00A66C" fill-opacity="0.63"/>
<path opacity="0.2" d="M96.6031 168.036C96.5108 168.094 96.4049 168.125 96.2963 168.128C96.0939 168.128 95.9589 167.926 95.873 167.748C95.4313 166.779 95.689 165.527 95.0019 164.711C94.307 165.548 93.7461 166.488 93.3394 167.496L90.7259 166.687C90.6027 167.194 90.5832 167.722 90.6686 168.237C90.7539 168.753 90.9425 169.246 91.2228 169.687C90.7652 169.885 90.349 170.168 89.9959 170.521C89.8206 170.699 89.698 170.922 89.6417 171.166C89.5854 171.41 89.5976 171.664 89.6769 171.901C90.2789 172.048 90.8983 172.11 91.5173 172.085C91.4199 173.234 91.486 174.391 91.7137 175.521C91.7187 175.605 91.7409 175.687 91.7788 175.761C91.8168 175.836 91.8698 175.903 91.9345 175.956C92.1247 176.079 92.3762 175.956 92.548 175.852C93.4536 175.293 94.1963 174.506 94.7013 173.57L95.6706 175.895C95.7404 176.134 95.8953 176.339 96.1062 176.472C96.2525 176.524 96.4122 176.525 96.5593 176.475C96.7063 176.425 96.8321 176.326 96.9159 176.196C97.0791 175.927 97.1777 175.625 97.2043 175.312L97.5724 173.104C97.5784 172.99 97.6191 172.881 97.6889 172.791C97.7985 172.705 97.9371 172.665 98.0754 172.68C98.9957 172.68 99.9158 172.644 100.842 172.65C101.002 172.159 100.511 171.705 100.039 171.496C99.5662 171.288 99.0079 171.134 98.7748 170.68C98.2901 169.742 99.5355 168.447 99.0079 167.644C98.4435 166.705 97.4129 167.631 96.6031 168.036Z" fill="#00A66C" fill-opacity="0.63"/>
<path opacity="0.5" d="M31.1816 31.42C31.0893 31.4773 30.9834 31.5091 30.8748 31.512C30.6785 31.512 30.5374 31.3096 30.4577 31.1317C30.0098 30.1685 30.2675 28.9109 29.5804 28.095C28.8854 28.934 28.3245 29.8756 27.9179 30.8863L25.3045 30.0765C25.1814 30.5833 25.1619 31.1097 25.2473 31.6241C25.3327 32.1386 25.5212 32.6305 25.8014 33.0703C25.3437 33.2691 24.9275 33.5521 24.5744 33.9046C24.4004 34.085 24.2787 34.3093 24.2225 34.5536C24.1663 34.7979 24.1777 35.0528 24.2554 35.2911C24.8574 35.4376 25.4768 35.4995 26.0958 35.4752C25.9982 36.6218 26.0643 37.7765 26.2922 38.9045C26.2964 38.9894 26.3181 39.0725 26.3562 39.1486C26.3942 39.2246 26.4476 39.2919 26.513 39.3462C26.6158 39.3843 26.7269 39.3942 26.8348 39.3747C26.9427 39.3553 27.0434 39.3073 27.1265 39.2358C28.0306 38.6781 28.773 37.8934 29.2798 36.9598L30.2491 39.2787C30.3118 39.5308 30.4673 39.7499 30.6847 39.8922C30.8327 39.9422 30.9932 39.9416 31.1408 39.8905C31.2885 39.8394 31.415 39.7408 31.5006 39.61C31.66 39.3401 31.7584 39.0386 31.7889 38.7266L32.1877 36.5058C32.1959 36.3915 32.2387 36.2823 32.3104 36.1929C32.4218 36.1109 32.559 36.0718 32.6969 36.0825C33.6171 36.0825 34.5373 36.0825 35.4575 36.0825C35.617 35.5917 35.1263 35.1377 34.66 34.9291C34.1938 34.7206 33.6232 34.5672 33.3901 34.1071C32.9055 33.1746 34.1508 31.874 33.6232 31.0704C32.9914 30.0888 31.9914 31.0213 31.1816 31.42Z" fill="#00A66C" fill-opacity="0.63"/>
<path opacity="0.5" d="M66.0027 108.406C65.9104 108.463 65.8046 108.495 65.696 108.498C65.4997 108.498 65.3586 108.295 65.2788 108.117C64.831 107.148 65.0887 105.897 64.4016 105.05C63.705 105.887 63.1458 106.829 62.7452 107.841L60.1256 107.056C60.0039 107.563 59.9852 108.089 60.0706 108.603C60.1559 109.118 60.3436 109.61 60.6225 110.05C60.1657 110.25 59.7497 110.533 59.3956 110.884C59.2215 111.065 59.0999 111.289 59.0437 111.533C58.9875 111.777 58.9989 112.032 59.0766 112.271C59.6785 112.417 60.298 112.479 60.917 112.455C60.8196 113.601 60.8857 114.756 61.1133 115.884C61.1083 115.986 61.1355 116.087 61.1911 116.172C61.2467 116.258 61.3278 116.324 61.4229 116.36C61.5181 116.397 61.6224 116.403 61.721 116.377C61.8197 116.351 61.9075 116.294 61.9722 116.215C62.8763 115.658 63.6187 114.873 64.1255 113.939L65.0948 116.258C65.1682 116.497 65.3221 116.703 65.5303 116.841C65.6784 116.891 65.8389 116.891 65.9865 116.839C66.1342 116.788 66.2607 116.69 66.3463 116.559C66.5111 116.292 66.6099 115.989 66.6346 115.676L66.9966 113.467C67.0047 113.353 67.0476 113.244 67.1193 113.154C67.2299 113.071 67.3677 113.031 67.5058 113.044C68.426 113.044 69.3462 113.007 70.2726 113.044C70.4259 112.553 69.9413 112.099 69.4689 111.89C68.9965 111.682 68.4383 111.528 68.199 111.068C67.7205 110.136 68.9597 108.835 68.4321 108.032C67.8186 107.056 66.8125 108.007 66.0027 108.406Z" fill="#00A66C" fill-opacity="0.63"/>
<path opacity="0.5" d="M40.7335 78.3942C40.6412 78.4515 40.5353 78.4832 40.4268 78.4862C40.2243 78.4862 40.0893 78.2837 40.0035 78.1058C39.5617 77.1365 39.8194 75.885 39.1323 75.0691C38.4357 75.907 37.8747 76.8489 37.4698 77.8604L34.8564 77.0506C34.7338 77.5571 34.714 78.0831 34.7984 78.5973C34.8827 79.1115 35.0693 79.6036 35.3472 80.0444C34.89 80.2441 34.4739 80.527 34.1202 80.8788C33.9444 81.058 33.8216 81.2824 33.7653 81.5271C33.709 81.7717 33.7214 82.0272 33.8012 82.2652C34.4031 82.4117 35.0226 82.4737 35.6416 82.4493C35.5442 83.5959 35.6103 84.7506 35.8379 85.8787C35.8285 85.9823 35.853 86.0862 35.908 86.1747C35.9629 86.2631 36.0451 86.3312 36.1422 86.3686C36.2394 86.4061 36.3461 86.4109 36.4461 86.3822C36.5462 86.3536 36.6342 86.2931 36.6968 86.2099C37.6005 85.6536 38.3412 84.8685 38.844 83.9339L39.8194 86.2529C39.8843 86.5039 40.0394 86.7223 40.255 86.8664C40.4022 86.9159 40.5616 86.915 40.7082 86.8639C40.8548 86.8128 40.9803 86.7144 41.0648 86.5842C41.2295 86.3167 41.3284 86.0139 41.3531 85.7007L41.7212 83.4922C41.7272 83.3785 41.7679 83.2693 41.8377 83.1793C41.9487 83.0963 42.0862 83.057 42.2242 83.0689C43.1445 83.0689 44.0647 83.0321 44.991 83.0689C45.1505 82.5781 44.6598 82.1241 44.1874 81.9156C43.715 81.707 43.1567 81.5536 42.9236 81.0935C42.439 80.161 43.6843 78.8604 43.1567 78.0568C42.5433 77.0629 41.5372 77.9954 40.7335 78.3942Z" fill="#00A66C" fill-opacity="0.63"/>
<path opacity="0.5" d="M149.276 85.4614C149.184 85.5187 149.078 85.5505 148.97 85.5535C148.773 85.5535 148.638 85.351 148.552 85.1731C148.105 84.2038 148.362 82.9523 147.681 82.1364C146.983 82.9729 146.422 83.9151 146.019 84.9277L143.405 84.1179C143.283 84.6244 143.263 85.1503 143.347 85.6645C143.432 86.1788 143.618 86.6709 143.896 87.1117C143.439 87.312 143.023 87.5948 142.669 87.946C142.496 88.1268 142.374 88.3511 142.318 88.5952C142.262 88.8393 142.273 89.0941 142.35 89.3325C142.953 89.4756 143.572 89.5375 144.191 89.5165C144.093 90.6632 144.159 91.8178 144.387 92.9459C144.38 93.0493 144.406 93.1521 144.462 93.2394C144.518 93.3266 144.6 93.3937 144.697 93.4308C144.794 93.4678 144.9 93.4729 145 93.4453C145.1 93.4176 145.188 93.3587 145.252 93.2772C146.154 92.7193 146.895 91.9345 147.399 91.0012L148.375 93.3201C148.443 93.5594 148.596 93.7662 148.804 93.9029C148.952 93.9529 149.112 93.9523 149.26 93.9012C149.408 93.8501 149.534 93.7515 149.62 93.6207C149.784 93.3529 149.883 93.0503 149.908 92.7373L150.27 90.5288C150.278 90.4144 150.321 90.3053 150.393 90.2159C150.504 90.1324 150.641 90.093 150.779 90.1055C151.7 90.1055 152.62 90.0687 153.546 90.0748C153.7 89.5902 153.215 89.13 152.742 88.9276C152.27 88.7252 151.712 88.5656 151.473 88.1055C150.994 87.173 152.239 85.8725 151.706 85.0688C151.092 84.1302 150.086 85.0627 149.276 85.4614Z" fill="#00A66C" fill-opacity="0.63"/>
<path opacity="0.2" d="M96.6031 79.5537C96.5108 79.611 96.4049 79.6427 96.2963 79.6457C96.0939 79.6457 95.9589 79.4494 95.873 79.2653C95.4313 78.3022 95.689 77.0507 95.0019 76.2347C94.307 77.0716 93.7461 78.0111 93.3393 79.0199L90.7321 78.2224C90.6086 78.7291 90.589 79.2556 90.6744 79.7701C90.7598 80.2846 90.9484 80.7765 91.229 81.2162C90.771 81.4172 90.3549 81.7023 90.002 82.0567C89.8261 82.2346 89.7032 82.4579 89.6469 82.7016C89.5905 82.9454 89.603 83.2 89.683 83.437C90.285 83.5835 90.9044 83.6454 91.5234 83.621C91.426 84.7697 91.4921 85.9264 91.7197 87.0565C91.7248 87.1404 91.747 87.2223 91.785 87.2973C91.823 87.3722 91.876 87.4385 91.9406 87.4921C92.1308 87.6148 92.3823 87.4921 92.5541 87.3878C93.4794 86.8308 94.2412 86.0393 94.7626 85.0934L95.7319 87.4124C95.8014 87.6531 95.9563 87.8603 96.1675 87.9952C96.3145 88.0458 96.4744 88.0455 96.6213 87.9943C96.7681 87.9431 96.8935 87.844 96.9773 87.713C97.1277 87.4357 97.2097 87.1265 97.2165 86.8112L97.5846 84.5965C97.5907 84.4846 97.6314 84.3774 97.7012 84.2898C97.8115 84.2051 97.9489 84.1637 98.0877 84.1732C99.0079 84.1732 99.9281 84.1425 100.854 84.1732C101.014 83.6824 100.523 83.2284 100.051 83.0198C99.5784 82.8113 99.0202 82.6579 98.787 82.2039C98.3024 81.2653 99.5478 79.9708 99.0202 79.1365C98.4435 78.2224 97.4128 79.1549 96.6031 79.5537Z" fill="#00A66C" fill-opacity="0.63"/>
<path opacity="0.3" d="M80.082 86.7437C79.988 86.8021 79.8799 86.8339 79.7692 86.8358C79.5729 86.8358 79.4379 86.6395 79.352 86.4554C78.9103 85.4922 79.1618 84.2407 78.4809 83.4248C77.786 84.2616 77.2251 85.2012 76.8183 86.21L74.2049 85.4002C74.082 85.9067 74.0621 86.4326 74.1464 86.9469C74.2307 87.4612 74.4175 87.9533 74.6957 88.394C74.2382 88.5959 73.8222 88.8809 73.4687 89.2345C73.2936 89.4129 73.1707 89.6359 73.1133 89.8792C73.056 90.1226 73.0665 90.377 73.1436 90.6148C73.7456 90.761 74.365 90.8229 74.984 90.7988C74.8896 91.9476 74.9557 93.1039 75.1804 94.2344C75.1968 94.4034 75.2782 94.5596 75.4073 94.6699C75.5975 94.7926 75.849 94.6699 76.0208 94.5656C76.9249 94.0072 77.6656 93.2199 78.168 92.2835L79.1434 94.6024C79.2087 94.8435 79.3619 95.0514 79.5728 95.1852C79.7207 95.2374 79.8819 95.2379 80.0301 95.1867C80.1783 95.1354 80.3047 95.0354 80.3888 94.903C80.5526 94.6374 80.6514 94.3368 80.6771 94.0258L81.0391 91.8172C81.0461 91.7026 81.089 91.5931 81.1618 91.5043C81.2713 91.4186 81.41 91.379 81.5483 91.3939C82.4685 91.3633 83.3887 91.3571 84.315 91.3633C84.4745 90.8725 83.9838 90.4185 83.5114 90.2099C83.039 90.0013 82.4808 89.8479 82.2415 89.394C81.763 88.4553 83.0083 87.1609 82.4807 86.3266C81.8795 85.4125 80.8857 86.345 80.082 86.7437Z" fill="#00A66C" fill-opacity="0.63"/>
<path opacity="0.2" d="M64.702 43.2539C64.6097 43.3112 64.5039 43.3429 64.3953 43.3459C64.199 43.3459 64.064 43.1496 63.9781 42.9655C63.5303 42.0024 63.788 40.7447 63.107 39.9349C62.4099 40.7702 61.8488 41.7101 61.4445 42.7201L58.831 41.9103C58.7085 42.4168 58.6887 42.9428 58.773 43.457C58.8573 43.9712 59.0439 44.4633 59.3218 44.9041C58.8638 45.1023 58.4475 45.3854 58.0949 45.7385C57.9198 45.9182 57.797 46.1423 57.7397 46.3865C57.6824 46.6308 57.6928 46.8861 57.7697 47.1249C58.3718 47.2711 58.9911 47.333 59.6102 47.309C59.5125 48.4556 59.5786 49.6104 59.8065 50.7384C59.8233 50.9091 59.9044 51.067 60.0335 51.1801C60.2237 51.3028 60.4752 51.1801 60.647 51.0696C61.5507 50.5133 62.2914 49.7282 62.7941 48.7936L63.7695 51.1126C63.8301 51.3639 63.9836 51.5831 64.199 51.7261C64.347 51.7771 64.5078 51.7771 64.6557 51.7259C64.8036 51.6747 64.9301 51.5754 65.0149 51.4439C65.1788 51.1782 65.2776 50.8776 65.3032 50.5666L65.6652 48.3519C65.6734 48.2376 65.7162 48.1284 65.7879 48.039C65.9007 47.9599 66.0368 47.921 66.1744 47.9286C67.0946 47.9286 68.0148 47.9286 68.9412 47.9286C69.0945 47.4378 68.6099 46.9838 68.1375 46.7753C67.6651 46.5667 67.1069 46.4133 66.8676 45.9532C66.3891 45.0207 67.6345 43.7201 67.1007 42.9165C66.4873 41.8981 65.4812 42.8306 64.702 43.2539Z" fill="#00A66C" fill-opacity="0.63"/>
<path opacity="0.3" d="M95.0202 100.013C94.9279 100.071 94.822 100.102 94.7135 100.105C94.6161 100.085 94.526 100.039 94.4526 99.9725C94.3792 99.9055 94.3252 99.82 94.2963 99.7249C93.8485 98.7618 94.1061 97.5041 93.419 96.6943C92.7241 97.5312 92.1633 98.4707 91.7565 99.4795L89.1431 98.6697C89.0214 99.1766 89.0027 99.7028 89.088 100.217C89.1734 100.731 89.3611 101.223 89.64 101.664C89.1836 101.865 88.7678 102.147 88.413 102.498C88.239 102.678 88.1174 102.903 88.0612 103.147C88.0049 103.391 88.0163 103.646 88.094 103.884C88.696 104.031 89.3154 104.093 89.9345 104.068C89.8368 105.215 89.9029 106.37 90.1308 107.498C90.135 107.583 90.1568 107.666 90.1948 107.742C90.2328 107.818 90.2862 107.885 90.3516 107.939C90.4539 107.978 90.5647 107.989 90.6726 107.971C90.7804 107.953 90.8814 107.906 90.9651 107.835C91.8686 107.274 92.6106 106.488 93.1184 105.553L94.0877 107.872C94.1572 108.113 94.3121 108.32 94.5233 108.455C94.6712 108.506 94.8321 108.506 94.98 108.455C95.1279 108.403 95.2544 108.304 95.3392 108.173C95.4978 107.905 95.5962 107.605 95.6275 107.295L95.9895 105.081C95.987 105.017 95.9992 104.953 96.0252 104.894C96.0513 104.836 96.0904 104.784 96.1397 104.743C96.1889 104.702 96.2469 104.673 96.3091 104.658C96.3714 104.644 96.4363 104.643 96.4987 104.657C97.4189 104.657 98.3391 104.657 99.2594 104.657C99.4189 104.167 98.9281 103.713 98.4618 103.504C97.9956 103.295 97.4251 103.142 97.1919 102.682C96.7134 101.749 97.9527 100.449 97.4251 99.6452C96.83 98.682 95.83 99.6145 95.0202 100.013Z" fill="#00A66C" fill-opacity="0.63"/>
</svg>
